<svg xmlns="http://www.w3.org/2000/svg" viewBox="0 0 1366 679" preserveAspectRatio="xMidYMid" width="1366" height="679" xmlns:xlink="http://www.w3.org/1999/xlink" style="shape-rendering:auto;display:block;background-position-x:0%;background-position-y:0%;background-size:auto;background-origin:padding-box;background-clip:border-box;background:scroll rgba(255, 255, 255, 0) none  repeat;width:1366px;height:679px;;animation:none"><g><defs><linearGradient gradientUnits="userSpaceOnUse" y2="578.51" y1="0" x2="0" x1="0" id="ldbk-photon-u7iph8uauko-lg"><stop offset="0" stop-color="#fad5ff"></stop>

    
<stop offset="1" stop-color="#9500ce"></stop></linearGradient>

  
<mask id="ldbk-photon-u7iph8uauko-mask"><g><path fill="#fff" d="M-0.5 -300 L-0.5 601.3616107307942 A27.5 27.5 0 0 0 55.5 601.3616107307942 L55.5 -300" transform="matrix(1,0,0,1,0,0)" style="fill:rgb(255, 255, 255);transform:matrix(1, 0, 0, 1, 0, 0);;animation:none"></path>
<path fill="#fff" d="M-0.5 530.6685325157245 L-0.5 546.3616107307942 A27.5 27.5 0 0 0 55.5 546.3616107307942 L55.5 530.6685325157245 A27.5 27.5 0 0 0 -0.5 530.6685325157245" transform="matrix(1,0,0,1,0,0)" opacity="1" style="fill:rgb(255, 255, 255);transform:matrix(1, 0, 0, 1, 0, 0);;animation:none"></path>
<path fill="#fff" d="M54.5 -300 L54.5 464.0651506606924 A27.5 27.5 0 0 1 110.5 464.0651506606924 L110.5 -300" transform="matrix(1,0,0,1,0,-16.50470542907715)" style="fill:rgb(255, 255, 255);transform:matrix(1, 0, 0, 1, 0, -16.5047);;animation:none"></path>
<path fill="#000" d="M54.5 -71.78006130299966 L54.5 -55 A27.5 27.5 0 0 0 110.5 -55 L110.5 -71.78006130299966 A27.5 27.5 0 0 0 54.5 -71.78006130299966" transform="matrix(1,0,0,1,0,0)" opacity="1" style="fill:rgb(0, 0, 0);transform:matrix(1, 0, 0, 1, 0, 0);;animation:none"></path>
<path fill="#fff" d="M109.5 -300 L109.5 616.4861532655893 A27.5 27.5 0 0 0 165.5 616.4861532655893 L165.5 -300" transform="matrix(1,0,0,1,0,20.2203311920166)" style="fill:rgb(255, 255, 255);transform:matrix(1, 0, 0, 1, 0, 20.2203);;animation:none"></path>
<path fill="#fff" d="M109.5 546.8069399539322 L109.5 561.4861532655893 A27.5 27.5 0 0 0 165.5 561.4861532655893 L165.5 546.8069399539322 A27.5 27.5 0 0 0 109.5 546.8069399539322" transform="matrix(1,0,0,1,0,545.1293334960938)" opacity="0.4" style="fill:rgb(255, 255, 255);transform:matrix(1, 0, 0, 1, 0, 545.129);opacity:0.4;;animation:none"></path>
<path fill="#fff" d="M164.5 -300 L164.5 430.46565621018806 A27.5 27.5 0 0 1 220.5 430.46565621018806 L220.5 -300" transform="matrix(1,0,0,1,0,-1.7327240705490112)" style="fill:rgb(255, 255, 255);transform:matrix(1, 0, 0, 1, 0, -1.73272);;animation:none"></path>
<path fill="#000" d="M164.5 -78.76822302605038 L164.5 -55.00000000000001 A27.5 27.5 0 0 0 220.5 -55.00000000000001 L220.5 -78.76822302605038 A27.5 27.5 0 0 0 164.5 -78.76822302605038" transform="matrix(1,0,0,1,0,0)" opacity="0.4" style="fill:rgb(0, 0, 0);transform:matrix(1, 0, 0, 1, 0, 0);opacity:0.4;;animation:none"></path>
<path fill="#fff" d="M219.5 -300 L219.5 580.5364265005222 A27.5 27.5 0 0 0 275.5 580.5364265005222 L275.5 -300" transform="matrix(1,0,0,1,0,45.043853759765625)" style="fill:rgb(255, 255, 255);transform:matrix(1, 0, 0, 1, 0, 45.0439);;animation:none"></path>
<path fill="#fff" d="M219.5 501.4429654270109 L219.5 525.5364265005222 A27.5 27.5 0 0 0 275.5 525.5364265005222 L275.5 501.4429654270109 A27.5 27.5 0 0 0 219.5 501.4429654270109" transform="matrix(1,0,0,1,0,827.849853515625)" opacity="0.0571429" style="fill:rgb(255, 255, 255);transform:matrix(1, 0, 0, 1, 0, 827.85);opacity:0.0571429;;animation:none"></path>
<path fill="#fff" d="M274.5 -300 L274.5 404.0228148062273 A27.5 27.5 0 0 1 330.5 404.0228148062273 L330.5 -300" transform="matrix(1,0,0,1,0,-12.507987976074219)" style="fill:rgb(255, 255, 255);transform:matrix(1, 0, 0, 1, 0, -12.508);;animation:none"></path>
<path fill="#000" d="M274.5 -69.4439949917564 L274.5 -55 A27.5 27.5 0 0 0 330.5 -55 L330.5 -69.4439949917564 A27.5 27.5 0 0 0 274.5 -69.4439949917564" transform="matrix(1,0,0,1,0,0)" opacity="1" style="fill:rgb(0, 0, 0);transform:matrix(1, 0, 0, 1, 0, 0);;animation:none"></path>
<path fill="#fff" d="M329.5 -300 L329.5 568.3495529103731 A27.5 27.5 0 0 0 385.5 568.3495529103731 L385.5 -300" transform="matrix(1,0,0,1,0,19.419822692871094)" style="fill:rgb(255, 255, 255);transform:matrix(1, 0, 0, 1, 0, 19.4198);;animation:none"></path>
<path fill="#fff" d="M329.5 481.6119038987182 L329.5 513.3495529103731 A27.5 27.5 0 0 0 385.5 513.3495529103731 L385.5 481.6119038987182 A27.5 27.5 0 0 0 329.5 481.6119038987182" transform="matrix(1,0,0,1,0,802.1900024414062)" opacity="0.4" style="fill:rgb(255, 255, 255);transform:matrix(1, 0, 0, 1, 0, 802.19);opacity:0.4;;animation:none"></path>
<path fill="#fff" d="M384.5 -300 L384.5 467.03593187716706 A27.5 27.5 0 0 1 440.5 467.03593187716706 L440.5 -300" transform="matrix(1,0,0,1,0,-6.046276092529297)" style="fill:rgb(255, 255, 255);transform:matrix(1, 0, 0, 1, 0, -6.04628);;animation:none"></path>
<path fill="#000" d="M384.5 -84.40986573929663 L384.5 -55 A27.5 27.5 0 0 0 440.5 -55 L440.5 -84.40986573929663 A27.5 27.5 0 0 0 384.5 -84.40986573929663" transform="matrix(1,0,0,1,0,0)" opacity="0.228571" style="fill:rgb(0, 0, 0);transform:matrix(1, 0, 0, 1, 0, 0);opacity:0.228571;;animation:none"></path>
<path fill="#fff" d="M439.5 -300 L439.5 630.4462247235136 A27.5 27.5 0 0 0 495.5 630.4462247235136 L495.5 -300" transform="matrix(1,0,0,1,0,1.2003498077392578)" style="fill:rgb(255, 255, 255);transform:matrix(1, 0, 0, 1, 0, 1.20035);;animation:none"></path>
<path fill="#fff" d="M439.5 542.1261946327454 L439.5 575.4462247235136 A27.5 27.5 0 0 0 495.5 575.4462247235136 L495.5 542.1261946327454 A27.5 27.5 0 0 0 439.5 542.1261946327454" transform="matrix(1,0,0,1,0,967.0894775390625)" opacity="0.114286" style="fill:rgb(255, 255, 255);transform:matrix(1, 0, 0, 1, 0, 967.089);opacity:0.114286;;animation:none"></path>
<path fill="#fff" d="M494.5 -300 L494.5 514.6773967168621 A27.5 27.5 0 0 1 550.5 514.6773967168621 L550.5 -300" transform="matrix(1,0,0,1,0,-1.729649543762207)" style="fill:rgb(255, 255, 255);transform:matrix(1, 0, 0, 1, 0, -1.72965);;animation:none"></path>
<path fill="#000" d="M494.5 -82.40462875245274 L494.5 -54.99999999999999 A27.5 27.5 0 0 0 550.5 -54.99999999999999 L550.5 -82.40462875245274 A27.5 27.5 0 0 0 494.5 -82.40462875245274" transform="matrix(1,0,0,1,0,0)" opacity="1" style="fill:rgb(0, 0, 0);transform:matrix(1, 0, 0, 1, 0, 0);;animation:none"></path>
<path fill="#fff" d="M549.5 -300 L549.5 636.8983435485454 A27.5 27.5 0 0 0 605.5 636.8983435485454 L605.5 -300" transform="matrix(1,0,0,1,0,9.725421905517578)" style="fill:rgb(255, 255, 255);transform:matrix(1, 0, 0, 1, 0, 9.72542);;animation:none"></path>
<path fill="#fff" d="M549.5 550.2205715769446 L549.5 581.8983435485454 A27.5 27.5 0 0 0 605.5 581.8983435485454 L605.5 550.2205715769446 A27.5 27.5 0 0 0 549.5 550.2205715769446" transform="matrix(1,0,0,1,0,331.0033874511719)" opacity="0.857143" style="fill:rgb(255, 255, 255);transform:matrix(1, 0, 0, 1, 0, 331.003);opacity:0.857143;;animation:none"></path>
<path fill="#fff" d="M604.5 -300 L604.5 429.08328775829773 A27.5 27.5 0 0 1 660.5 429.08328775829773 L660.5 -300" transform="matrix(1,0,0,1,0,-22.55466079711914)" style="fill:rgb(255, 255, 255);transform:matrix(1, 0, 0, 1, 0, -22.5547);;animation:none"></path>
<path fill="#000" d="M604.5 -78.72939029567783 L604.5 -54.99999999999999 A27.5 27.5 0 0 0 660.5 -54.99999999999999 L660.5 -78.72939029567783 A27.5 27.5 0 0 0 604.5 -78.72939029567783" transform="matrix(1,0,0,1,0,0)" opacity="0.971429" style="fill:rgb(0, 0, 0);transform:matrix(1, 0, 0, 1, 0, 0);opacity:0.971429;;animation:none"></path>
<path fill="#fff" d="M659.5 -300 L659.5 531.7167891405902 A27.5 27.5 0 0 0 715.5 531.7167891405902 L715.5 -300" transform="matrix(1,0,0,1,0,2.6263675689697266)" style="fill:rgb(255, 255, 255);transform:matrix(1, 0, 0, 1, 0, 2.62637);;animation:none"></path>
<path fill="#fff" d="M659.5 450.8072525692747 L659.5 476.7167891405902 A27.5 27.5 0 0 0 715.5 476.7167891405902 L715.5 450.8072525692747 A27.5 27.5 0 0 0 659.5 450.8072525692747" transform="matrix(1,0,0,1,0,737.7763061523438)" opacity="0.171429" style="fill:rgb(255, 255, 255);transform:matrix(1, 0, 0, 1, 0, 737.776);opacity:0.171429;;animation:none"></path>
<path fill="#fff" d="M714.5 -300 L714.5 398.08695548319923 A27.5 27.5 0 0 1 770.5 398.08695548319923 L770.5 -300" transform="matrix(1,0,0,1,0,-36.42708206176758)" style="fill:rgb(255, 255, 255);transform:matrix(1, 0, 0, 1, 0, -36.4271);;animation:none"></path>
<path fill="#000" d="M714.5 -68.56365591823752 L714.5 -54.99999999999999 A27.5 27.5 0 0 0 770.5 -54.99999999999999 L770.5 -68.56365591823752 A27.5 27.5 0 0 0 714.5 -68.56365591823752" transform="matrix(1,0,0,1,0,0)" opacity="0.457143" style="fill:rgb(0, 0, 0);transform:matrix(1, 0, 0, 1, 0, 0);opacity:0.457143;;animation:none"></path>
<path fill="#fff" d="M769.5 -300 L769.5 478.9729118398745 A27.5 27.5 0 0 0 825.5 478.9729118398745 L825.5 -300" transform="matrix(1,0,0,1,0,22.040233612060547)" style="fill:rgb(255, 255, 255);transform:matrix(1, 0, 0, 1, 0, 22.0402);;animation:none"></path>
<path fill="#fff" d="M769.5 384.1874898786382 L769.5 423.9729118398745 A27.5 27.5 0 0 0 825.5 423.9729118398745 L825.5 384.1874898786382 A27.5 27.5 0 0 0 769.5 384.1874898786382" transform="matrix(1,0,0,1,0,764.3790893554688)" opacity="0.457143" style="fill:rgb(255, 255, 255);transform:matrix(1, 0, 0, 1, 0, 764.379);opacity:0.457143;;animation:none"></path>
<path fill="#fff" d="M824.5 -300 L824.5 371.86852402376434 A27.5 27.5 0 0 1 880.5 371.86852402376434 L880.5 -300" transform="matrix(1,0,0,1,0,-40.77431869506836)" style="fill:rgb(255, 255, 255);transform:matrix(1, 0, 0, 1, 0, -40.7743);;animation:none"></path>
<path fill="#000" d="M824.5 -74.99285059009176 L824.5 -55.00000000000001 A27.5 27.5 0 0 0 880.5 -55.00000000000001 L880.5 -74.99285059009176 A27.5 27.5 0 0 0 824.5 -74.99285059009176" transform="matrix(1,0,0,1,0,0)" opacity="0.285714" style="fill:rgb(0, 0, 0);transform:matrix(1, 0, 0, 1, 0, 0);opacity:0.285714;;animation:none"></path>
<path fill="#fff" d="M879.5 -300 L879.5 549.2599448906532 A27.5 27.5 0 0 0 935.5 549.2599448906532 L935.5 -300" transform="matrix(1,0,0,1,0,8.511043548583984)" style="fill:rgb(255, 255, 255);transform:matrix(1, 0, 0, 1, 0, 8.51104);;animation:none"></path>
<path fill="#fff" d="M879.5 456.16221015102053 L879.5 494.2599448906532 A27.5 27.5 0 0 0 935.5 494.2599448906532 L935.5 456.16221015102053 A27.5 27.5 0 0 0 879.5 456.16221015102053" transform="matrix(1,0,0,1,0,742.5256958007812)" opacity="0.342857" style="fill:rgb(255, 255, 255);transform:matrix(1, 0, 0, 1, 0, 742.526);opacity:0.342857;;animation:none"></path>
<path fill="#fff" d="M934.5 -300 L934.5 360.0147925901721 A27.5 27.5 0 0 1 990.5 360.0147925901721 L990.5 -300" transform="matrix(1,0,0,1,0,-0.3276161849498749)" style="fill:rgb(255, 255, 255);transform:matrix(1, 0, 0, 1, 0, -0.327616);;animation:none"></path>
<path fill="#000" d="M934.5 -79.19742702867802 L934.5 -54.99999999999999 A27.5 27.5 0 0 0 990.5 -54.99999999999999 L990.5 -79.19742702867802 A27.5 27.5 0 0 0 934.5 -79.19742702867802" transform="matrix(1,0,0,1,0,0)" opacity="1" style="fill:rgb(0, 0, 0);transform:matrix(1, 0, 0, 1, 0, 0);;animation:none"></path>
<path fill="#fff" d="M989.5 -300 L989.5 538.6778802732894 A27.5 27.5 0 0 0 1045.5 538.6778802732894 L1045.5 -300" transform="matrix(1,0,0,1,0,19.005163192749023)" style="fill:rgb(255, 255, 255);transform:matrix(1, 0, 0, 1, 0, 19.0052);;animation:none"></path>
<path fill="#fff" d="M989.5 473.54285500746425 L989.5 483.6778802732893 A27.5 27.5 0 0 0 1045.5 483.6778802732893 L1045.5 473.54285500746425 A27.5 27.5 0 0 0 989.5 473.54285500746425" transform="matrix(1,0,0,1,0,277.1063537597656)" opacity="0.971429" style="fill:rgb(255, 255, 255);transform:matrix(1, 0, 0, 1, 0, 277.106);opacity:0.971429;;animation:none"></path>
<path fill="#fff" d="M1044.5 -300 L1044.5 373.97509096427643 A27.5 27.5 0 0 1 1100.5 373.97509096427643 L1100.5 -300" transform="matrix(1,0,0,1,0,-36.39622116088867)" style="fill:rgb(255, 255, 255);transform:matrix(1, 0, 0, 1, 0, -36.3962);;animation:none"></path>
<path fill="#000" d="M1044.5 -89.94814934770022 L1044.5 -55 A27.5 27.5 0 0 0 1100.5 -55 L1100.5 -89.94814934770022 A27.5 27.5 0 0 0 1044.5 -89.94814934770022" transform="matrix(1,0,0,1,0,0)" opacity="0.628571" style="fill:rgb(0, 0, 0);transform:matrix(1, 0, 0, 1, 0, 0);opacity:0.628571;;animation:none"></path>
<path fill="#fff" d="M1099.5 -300 L1099.5 482.1344716129797 A27.5 27.5 0 0 0 1155.5 482.1344716129797 L1155.5 -300" transform="matrix(1,0,0,1,0,24.47231101989746)" style="fill:rgb(255, 255, 255);transform:matrix(1, 0, 0, 1, 0, 24.4723);;animation:none"></path>
<path fill="#fff" d="M1099.5 415.0844231599088 L1099.5 427.1344716129797 A27.5 27.5 0 0 0 1155.5 427.1344716129797 L1155.5 415.0844231599088 A27.5 27.5 0 0 0 1099.5 415.0844231599088" transform="matrix(1,0,0,1,0,365.1707458496094)" opacity="0.857143" style="fill:rgb(255, 255, 255);transform:matrix(1, 0, 0, 1, 0, 365.171);opacity:0.857143;;animation:none"></path>
<path fill="#fff" d="M1154.5 -300 L1154.5 368.5664035636245 A27.5 27.5 0 0 1 1210.5 368.5664035636245 L1210.5 -300" transform="matrix(1,0,0,1,0,-43.085872650146484)" style="fill:rgb(255, 255, 255);transform:matrix(1, 0, 0, 1, 0, -43.0859);;animation:none"></path>
<path fill="#000" d="M1154.5 -93.1750049033173 L1154.5 -55 A27.5 27.5 0 0 0 1210.5 -55 L1210.5 -93.1750049033173 A27.5 27.5 0 0 0 1154.5 -93.1750049033173" transform="matrix(1,0,0,1,0,0)" opacity="0.628571" style="fill:rgb(0, 0, 0);transform:matrix(1, 0, 0, 1, 0, 0);opacity:0.628571;;animation:none"></path>
<path fill="#fff" d="M1209.5 -300 L1209.5 552.447770011126 A27.5 27.5 0 0 0 1265.5 552.447770011126 L1265.5 -300" transform="matrix(1,0,0,1,0,19.382972717285156)" style="fill:rgb(255, 255, 255);transform:matrix(1, 0, 0, 1, 0, 19.383);;animation:none"></path>
<path fill="#fff" d="M1209.5 482.8843869137544 L1209.5 497.4477700111259 A27.5 27.5 0 0 0 1265.5 497.4477700111259 L1265.5 482.8843869137544 A27.5 27.5 0 0 0 1209.5 482.8843869137544" transform="matrix(1,0,0,1,0,736.9655151367188)" opacity="0.514286" style="fill:rgb(255, 255, 255);transform:matrix(1, 0, 0, 1, 0, 736.966);opacity:0.514286;;animation:none"></path>
<path fill="#fff" d="M1264.5 -300 L1264.5 435.63241697401816 A27.5 27.5 0 0 1 1320.5 435.63241697401816 L1320.5 -300" transform="matrix(1,0,0,1,0,-43.97505569458008)" style="fill:rgb(255, 255, 255);transform:matrix(1, 0, 0, 1, 0, -43.9751);;animation:none"></path>
<path fill="#000" d="M1264.5 -93.27058643702927 L1264.5 -55 A27.5 27.5 0 0 0 1320.5 -55 L1320.5 -93.27058643702927 A27.5 27.5 0 0 0 1264.5 -93.27058643702927" transform="matrix(1,0,0,1,0,0)" opacity="0.685714" style="fill:rgb(0, 0, 0);transform:matrix(1, 0, 0, 1, 0, 0);opacity:0.685714;;animation:none"></path>
<path fill="#fff" d="M1319.5 -300 L1319.5 489.442907380683 A27.5 27.5 0 0 0 1375.5 489.442907380683 L1375.5 -300" transform="matrix(1,0,0,1,0,20.34368133544922)" style="fill:rgb(255, 255, 255);transform:matrix(1, 0, 0, 1, 0, 20.3437);;animation:none"></path>
<path fill="#fff" d="M1319.5 417.8490110151716 L1319.5 434.442907380683 A27.5 27.5 0 0 0 1375.5 434.442907380683 L1375.5 417.8490110151716 A27.5 27.5 0 0 0 1319.5 417.8490110151716" transform="matrix(1,0,0,1,0,726.9298706054688)" opacity="0.514286" style="fill:rgb(255, 255, 255);transform:matrix(1, 0, 0, 1, 0, 726.93);opacity:0.514286;;animation:none"></path></g></mask></defs>


<rect mask="url(#ldbk-photon-u7iph8uauko-mask)" fill="url(#ldbk-photon-u7iph8uauko-lg)" height="679" width="1366" y="0" x="0" style="fill:url('#ldbk-photon-u7iph8uauko-lg');;animation:none"></rect>
<g></g></g><!-- [ldio] generated by https://loading.io --></svg>