<svg xmlns="http://www.w3.org/2000/svg" viewBox="0 0 1391 680" preserveAspectRatio="xMidYMid" width="1391" height="680" xmlns:xlink="http://www.w3.org/1999/xlink" style="shape-rendering:auto;display:block;background-position-x:0%;background-position-y:0%;background-size:auto;background-origin:padding-box;background-clip:border-box;background:scroll rgba(0, 0, 0, 0) none  repeat;width:1391px;height:680px;;animation:none"><g><defs><linearGradient gradientUnits="userSpaceOnUse" y2="653.8" y1="0" x2="0" x1="0" id="ldbk-photon-io1r5tm327c-lg"><stop offset="0" stop-color="#a619fc"></stop>

    
<stop offset="1" stop-color="#ecabff"></stop></linearGradient>

  
<mask id="ldbk-photon-io1r5tm327c-mask"><g><path fill="#fff" d="M-0.5 -300 L-0.5 586.9843694523097 A18 18 0 0 0 36.5 586.9843694523097 L36.5 -300" transform="matrix(1,0,0,1,0,0)" style="fill:rgb(255, 255, 255);transform:matrix(1, 0, 0, 1, 0, 0);;animation:none"></path>
<path fill="#fff" d="M-0.5 532.2550227185266 L-0.5 550.9843694523097 A18 18 0 0 0 36.5 550.9843694523097 L36.5 532.2550227185266 A18 18 0 0 0 -0.5 532.2550227185266" transform="matrix(1,0,0,1,0,0)" opacity="1" style="fill:rgb(255, 255, 255);transform:matrix(1, 0, 0, 1, 0, 0);;animation:none"></path>
<path fill="#fff" d="M35.5 -300 L35.5 468.1941582963501 A18 18 0 0 1 72.5 468.1941582963501 L72.5 -300" transform="matrix(1,0,0,1,0,-2.4805221557617188)" style="fill:rgb(255, 255, 255);transform:matrix(1, 0, 0, 1, 0, -2.48052);;animation:none"></path>
<path fill="#000" d="M35.5 -72.08803788826032 L35.5 -36 A18 18 0 0 0 72.5 -36 L72.5 -72.08803788826032 A18 18 0 0 0 35.5 -72.08803788826032" transform="matrix(1,0,0,1,0,0)" opacity="1" style="fill:rgb(0, 0, 0);transform:matrix(1, 0, 0, 1, 0, 0);;animation:none"></path>
<path fill="#fff" d="M71.5 -300 L71.5 600.5796594124536 A18 18 0 0 0 108.5 600.5796594124536 L108.5 -300" transform="matrix(1,0,0,1,0,3.478322744369507)" style="fill:rgb(255, 255, 255);transform:matrix(1, 0, 0, 1, 0, 3.47832);;animation:none"></path>
<path fill="#fff" d="M71.5 529.3770963007915 L71.5 564.5796594124536 A18 18 0 0 0 108.5 564.5796594124536 L108.5 529.3770963007915 A18 18 0 0 0 71.5 529.3770963007915" transform="matrix(1,0,0,1,0,127.00740814208984)" opacity="1" style="fill:rgb(255, 255, 255);transform:matrix(1, 0, 0, 1, 0, 127.007);;animation:none"></path>
<path fill="#fff" d="M107.5 -300 L107.5 505.3978869272778 A18 18 0 0 1 144.5 505.3978869272778 L144.5 -300" transform="matrix(1,0,0,1,0,-6.566890716552734)" style="fill:rgb(255, 255, 255);transform:matrix(1, 0, 0, 1, 0, -6.56689);;animation:none"></path>
<path fill="#000" d="M107.5 -63.68093168052026 L107.5 -36 A18 18 0 0 0 144.5 -36 L144.5 -63.68093168052026 A18 18 0 0 0 107.5 -63.68093168052026" transform="matrix(1,0,0,1,0,0)" opacity="1" style="fill:rgb(0, 0, 0);transform:matrix(1, 0, 0, 1, 0, 0);;animation:none"></path>
<path fill="#fff" d="M143.5 -300 L143.5 581.5076382718256 A18 18 0 0 0 180.5 581.5076382718256 L180.5 -300" transform="matrix(1,0,0,1,0,15.988471984863281)" style="fill:rgb(255, 255, 255);transform:matrix(1, 0, 0, 1, 0, 15.9885);;animation:none"></path>
<path fill="#fff" d="M143.5 525.83310365108 L143.5 545.5076382718256 A18 18 0 0 0 180.5 545.5076382718256 L180.5 525.83310365108 A18 18 0 0 0 143.5 525.83310365108" transform="matrix(1,0,0,1,0,514.2389526367188)" opacity="0.549451" style="fill:rgb(255, 255, 255);transform:matrix(1, 0, 0, 1, 0, 514.239);opacity:0.549451;;animation:none"></path>
<path fill="#fff" d="M179.5 -300 L179.5 482.27788881214576 A18 18 0 0 1 216.5 482.27788881214576 L216.5 -300" transform="matrix(1,0,0,1,0,-3.4170901775360107)" style="fill:rgb(255, 255, 255);transform:matrix(1, 0, 0, 1, 0, -3.41709);;animation:none"></path>
<path fill="#000" d="M179.5 -62.61936915981724 L179.5 -36 A18 18 0 0 0 216.5 -36 L216.5 -62.61936915981724 A18 18 0 0 0 179.5 -62.61936915981724" transform="matrix(1,0,0,1,0,0)" opacity="0.879121" style="fill:rgb(0, 0, 0);transform:matrix(1, 0, 0, 1, 0, 0);opacity:0.879121;;animation:none"></path>
<path fill="#fff" d="M215.5 -300 L215.5 672.2842231748253 A18 18 0 0 0 252.5 672.2842231748253 L252.5 -300" transform="matrix(1,0,0,1,0,21.630857467651367)" style="fill:rgb(255, 255, 255);transform:matrix(1, 0, 0, 1, 0, 21.6309);;animation:none"></path>
<path fill="#fff" d="M215.5 602.4962046313024 L215.5 636.2842231748253 A18 18 0 0 0 252.5 636.2842231748253 L252.5 602.4962046313024 A18 18 0 0 0 215.5 602.4962046313024" transform="matrix(1,0,0,1,0,379.4438781738281)" opacity="0.769231" style="fill:rgb(255, 255, 255);transform:matrix(1, 0, 0, 1, 0, 379.444);opacity:0.769231;;animation:none"></path>
<path fill="#fff" d="M251.5 -300 L251.5 521.1029802646897 A18 18 0 0 1 288.5 521.1029802646897 L288.5 -300" transform="matrix(1,0,0,1,0,-19.396574020385742)" style="fill:rgb(255, 255, 255);transform:matrix(1, 0, 0, 1, 0, -19.3966);;animation:none"></path>
<path fill="#000" d="M251.5 -70.57021004228149 L251.5 -36 A18 18 0 0 0 288.5 -36 L288.5 -70.57021004228149 A18 18 0 0 0 251.5 -70.57021004228149" transform="matrix(1,0,0,1,0,0)" opacity="0.549449" style="fill:rgb(0, 0, 0);transform:matrix(1, 0, 0, 1, 0, 0);opacity:0.549449;;animation:none"></path>
<path fill="#fff" d="M287.5 -300 L287.5 605.8050498818134 A18 18 0 0 0 324.5 605.8050498818134 L324.5 -300" transform="matrix(1,0,0,1,0,2.739025115966797)" style="fill:rgb(255, 255, 255);transform:matrix(1, 0, 0, 1, 0, 2.73903);;animation:none"></path>
<path fill="#fff" d="M287.5 539.7701303141619 L287.5 569.8050498818134 A18 18 0 0 0 324.5 569.8050498818134 L324.5 539.7701303141619 A18 18 0 0 0 287.5 539.7701303141619" transform="matrix(1,0,0,1,0,571.1342163085938)" opacity="0.549451" style="fill:rgb(255, 255, 255);transform:matrix(1, 0, 0, 1, 0, 571.134);opacity:0.549451;;animation:none"></path>
<path fill="#fff" d="M323.5 -300 L323.5 495.0674780252336 A18 18 0 0 1 360.5 495.0674780252336 L360.5 -300" transform="matrix(1,0,0,1,0,-14.260321617126465)" style="fill:rgb(255, 255, 255);transform:matrix(1, 0, 0, 1, 0, -14.2603);;animation:none"></path>
<path fill="#000" d="M323.5 -60.08971409903555 L323.5 -36 A18 18 0 0 0 360.5 -36 L360.5 -60.08971409903555 A18 18 0 0 0 323.5 -60.08971409903555" transform="matrix(1,0,0,1,0,0)" opacity="1" style="fill:rgb(0, 0, 0);transform:matrix(1, 0, 0, 1, 0, 0);;animation:none"></path>
<path fill="#fff" d="M359.5 -300 L359.5 588.9614427483166 A18 18 0 0 0 396.5 588.9614427483166 L396.5 -300" transform="matrix(1,0,0,1,0,20.507766723632812)" style="fill:rgb(255, 255, 255);transform:matrix(1, 0, 0, 1, 0, 20.5078);;animation:none"></path>
<path fill="#fff" d="M359.5 520.6086491274632 L359.5 552.9614427483166 A18 18 0 0 0 396.5 552.9614427483166 L396.5 520.6086491274632 A18 18 0 0 0 359.5 520.6086491274632" transform="matrix(1,0,0,1,0,987.7100830078125)" opacity="0.32967" style="fill:rgb(255, 255, 255);transform:matrix(1, 0, 0, 1, 0, 987.71);opacity:0.32967;;animation:none"></path>
<path fill="#fff" d="M395.5 -300 L395.5 514.1966840948481 A18 18 0 0 1 432.5 514.1966840948481 L432.5 -300" transform="matrix(1,0,0,1,0,-17.062358856201172)" style="fill:rgb(255, 255, 255);transform:matrix(1, 0, 0, 1, 0, -17.0624);;animation:none"></path>
<path fill="#000" d="M395.5 -61.24828498161007 L395.5 -36 A18 18 0 0 0 432.5 -36 L432.5 -61.24828498161007 A18 18 0 0 0 395.5 -61.24828498161007" transform="matrix(1,0,0,1,0,0)" opacity="0.21978" style="fill:rgb(0, 0, 0);transform:matrix(1, 0, 0, 1, 0, 0);opacity:0.21978;;animation:none"></path>
<path fill="#fff" d="M431.5 -300 L431.5 643.9874480081556 A18 18 0 0 0 468.5 643.9874480081556 L468.5 -300" transform="matrix(1,0,0,1,0,7.980915069580078)" style="fill:rgb(255, 255, 255);transform:matrix(1, 0, 0, 1, 0, 7.98092);;animation:none"></path>
<path fill="#fff" d="M431.5 591.3140317882634 L431.5 607.9874480081556 A18 18 0 0 0 468.5 607.9874480081556 L468.5 591.3140317882634 A18 18 0 0 0 431.5 591.3140317882634" transform="matrix(1,0,0,1,0,693.9608154296875)" opacity="0.329668" style="fill:rgb(255, 255, 255);transform:matrix(1, 0, 0, 1, 0, 693.961);opacity:0.329668;;animation:none"></path>
<path fill="#fff" d="M467.5 -300 L467.5 540.9118637321399 A18 18 0 0 1 504.5 540.9118637321399 L504.5 -300" transform="matrix(1,0,0,1,0,-6.817877928888549e-10)" style="fill:rgb(255, 255, 255);transform:matrix(1, 0, 0, 1, 0, -6.81788e-10);;animation:none"></path>
<path fill="#000" d="M467.5 -46.75572559705844 L467.5 -36 A18 18 0 0 0 504.5 -36 L504.5 -46.75572559705844 A18 18 0 0 0 467.5 -46.75572559705844" transform="matrix(1,0,0,1,0,0)" opacity="1" style="fill:rgb(0, 0, 0);transform:matrix(1, 0, 0, 1, 0, 0);;animation:none"></path>
<path fill="#fff" d="M503.5 -300 L503.5 592.0137653994738 A18 18 0 0 0 540.5 592.0137653994738 L540.5 -300" transform="matrix(1,0,0,1,0,3.823869466781616)" style="fill:rgb(255, 255, 255);transform:matrix(1, 0, 0, 1, 0, 3.82387);;animation:none"></path>
<path fill="#fff" d="M503.5 519.6684277554247 L503.5 556.0137653994738 A18 18 0 0 0 540.5 556.0137653994738 L540.5 519.6684277554247 A18 18 0 0 0 503.5 519.6684277554247" transform="matrix(1,0,0,1,0,68.057373046875)" opacity="1" style="fill:rgb(255, 255, 255);transform:matrix(1, 0, 0, 1, 0, 68.0574);;animation:none"></path>
<path fill="#fff" d="M539.5 -300 L539.5 477.79331636003366 A18 18 0 0 1 576.5 477.79331636003366 L576.5 -300" transform="matrix(1,0,0,1,0,-16.01741600036621)" style="fill:rgb(255, 255, 255);transform:matrix(1, 0, 0, 1, 0, -16.0174);;animation:none"></path>
<path fill="#000" d="M539.5 -55.76121697450099 L539.5 -36 A18 18 0 0 0 576.5 -36 L576.5 -55.76121697450099 A18 18 0 0 0 539.5 -55.76121697450099" transform="matrix(1,0,0,1,0,0)" opacity="0.989011" style="fill:rgb(0, 0, 0);transform:matrix(1, 0, 0, 1, 0, 0);opacity:0.989011;;animation:none"></path>
<path fill="#fff" d="M575.5 -300 L575.5 624.6414650875109 A18 18 0 0 0 612.5 624.6414650875109 L612.5 -300" transform="matrix(1,0,0,1,0,14.05713176727295)" style="fill:rgb(255, 255, 255);transform:matrix(1, 0, 0, 1, 0, 14.0571);;animation:none"></path>
<path fill="#fff" d="M575.5 560.3912489304975 L575.5 588.6414650875109 A18 18 0 0 0 612.5 588.6414650875109 L612.5 560.3912489304975 A18 18 0 0 0 575.5 560.3912489304975" transform="matrix(1,0,0,1,0,836.2957763671875)" opacity="0.439556" style="fill:rgb(255, 255, 255);transform:matrix(1, 0, 0, 1, 0, 836.296);opacity:0.439556;;animation:none"></path>
<path fill="#fff" d="M611.5 -300 L611.5 503.7267075012627 A18 18 0 0 1 648.5 503.7267075012627 L648.5 -300" transform="matrix(1,0,0,1,0,-8.742527961730957)" style="fill:rgb(255, 255, 255);transform:matrix(1, 0, 0, 1, 0, -8.74253);;animation:none"></path>
<path fill="#000" d="M611.5 -74.92169465027175 L611.5 -36 A18 18 0 0 0 648.5 -36 L648.5 -74.92169465027175 A18 18 0 0 0 611.5 -74.92169465027175" transform="matrix(1,0,0,1,0,0)" opacity="0.989011" style="fill:rgb(0, 0, 0);transform:matrix(1, 0, 0, 1, 0, 0);opacity:0.989011;;animation:none"></path>
<path fill="#fff" d="M647.5 -300 L647.5 640.2110757198602 A18 18 0 0 0 684.5 640.2110757198602 L684.5 -300" transform="matrix(1,0,0,1,0,7.029850959777832)" style="fill:rgb(255, 255, 255);transform:matrix(1, 0, 0, 1, 0, 7.02985);;animation:none"></path>
<path fill="#fff" d="M647.5 587.3785170880531 L647.5 604.2110757198602 A18 18 0 0 0 684.5 604.2110757198602 L684.5 587.3785170880531 A18 18 0 0 0 647.5 587.3785170880531" transform="matrix(1,0,0,1,0,447.7256774902344)" opacity="0.879121" style="fill:rgb(255, 255, 255);transform:matrix(1, 0, 0, 1, 0, 447.726);opacity:0.879121;;animation:none"></path>
<path fill="#fff" d="M683.5 -300 L683.5 490.5886643373337 A18 18 0 0 1 720.5 490.5886643373337 L720.5 -300" transform="matrix(1,0,0,1,0,-16.295316696166992)" style="fill:rgb(255, 255, 255);transform:matrix(1, 0, 0, 1, 0, -16.2953);;animation:none"></path>
<path fill="#000" d="M683.5 -48.42089715481192 L683.5 -36 A18 18 0 0 0 720.5 -36 L720.5 -48.42089715481192 A18 18 0 0 0 683.5 -48.42089715481192" transform="matrix(1,0,0,1,0,0)" opacity="0.10989" style="fill:rgb(0, 0, 0);transform:matrix(1, 0, 0, 1, 0, 0);opacity:0.10989;;animation:none"></path>
<path fill="#fff" d="M719.5 -300 L719.5 641.3368082700122 A18 18 0 0 0 756.5 641.3368082700122 L756.5 -300" transform="matrix(1,0,0,1,0,19.328554153442383)" style="fill:rgb(255, 255, 255);transform:matrix(1, 0, 0, 1, 0, 19.3286);;animation:none"></path>
<path fill="#fff" d="M719.5 574.453205986511 L719.5 605.3368082700122 A18 18 0 0 0 756.5 605.3368082700122 L756.5 574.453205986511 A18 18 0 0 0 719.5 574.453205986511" transform="matrix(1,0,0,1,0,664.0347900390625)" opacity="0.65934" style="fill:rgb(255, 255, 255);transform:matrix(1, 0, 0, 1, 0, 664.035);opacity:0.65934;;animation:none"></path>
<path fill="#fff" d="M755.5 -300 L755.5 520.4834078763565 A18 18 0 0 1 792.5 520.4834078763565 L792.5 -300" transform="matrix(1,0,0,1,0,-3.6918716430664062)" style="fill:rgb(255, 255, 255);transform:matrix(1, 0, 0, 1, 0, -3.69187);;animation:none"></path>
<path fill="#000" d="M755.5 -61.41293991065773 L755.5 -36 A18 18 0 0 0 792.5 -36 L792.5 -61.41293991065773 A18 18 0 0 0 755.5 -61.41293991065773" transform="matrix(1,0,0,1,0,0)" opacity="1" style="fill:rgb(0, 0, 0);transform:matrix(1, 0, 0, 1, 0, 0);;animation:none"></path>
<path fill="#fff" d="M791.5 -300 L791.5 585.8628381531078 A18 18 0 0 0 828.5 585.8628381531078 L828.5 -300" transform="matrix(1,0,0,1,0,0.546839714050293)" style="fill:rgb(255, 255, 255);transform:matrix(1, 0, 0, 1, 0, 0.54684);;animation:none"></path>
<path fill="#fff" d="M791.5 518.7373764226123 L791.5 549.8628381531078 A18 18 0 0 0 828.5 549.8628381531078 L828.5 518.7373764226123 A18 18 0 0 0 791.5 518.7373764226123" transform="matrix(1,0,0,1,0,73.08314514160156)" opacity="1" style="fill:rgb(255, 255, 255);transform:matrix(1, 0, 0, 1, 0, 73.0831);;animation:none"></path>
<path fill="#fff" d="M827.5 -300 L827.5 500.9532690685864 A18 18 0 0 1 864.5 500.9532690685864 L864.5 -300" transform="matrix(1,0,0,1,0,-12.783291816711426)" style="fill:rgb(255, 255, 255);transform:matrix(1, 0, 0, 1, 0, -12.7833);;animation:none"></path>
<path fill="#000" d="M827.5 -67.96093253308138 L827.5 -36.00000000000001 A18 18 0 0 0 864.5 -36.00000000000001 L864.5 -67.96093253308138 A18 18 0 0 0 827.5 -67.96093253308138" transform="matrix(1,0,0,1,0,0)" opacity="0.989004" style="fill:rgb(0, 0, 0);transform:matrix(1, 0, 0, 1, 0, 0);opacity:0.989004;;animation:none"></path>
<path fill="#fff" d="M863.5 -300 L863.5 642.8355496599953 A18 18 0 0 0 900.5 642.8355496599953 L900.5 -300" transform="matrix(1,0,0,1,0,15.057286262512207)" style="fill:rgb(255, 255, 255);transform:matrix(1, 0, 0, 1, 0, 15.0573);;animation:none"></path>
<path fill="#fff" d="M863.5 586.292806730071 L863.5 606.8355496599953 A18 18 0 0 0 900.5 606.8355496599953 L900.5 586.292806730071 A18 18 0 0 0 863.5 586.292806730071" transform="matrix(1,0,0,1,0,453.23828125)" opacity="0.659334" style="fill:rgb(255, 255, 255);transform:matrix(1, 0, 0, 1, 0, 453.238);opacity:0.659334;;animation:none"></path>
<path fill="#fff" d="M899.5 -300 L899.5 501.9480778569741 A18 18 0 0 1 936.5 501.9480778569741 L936.5 -300" transform="matrix(1,0,0,1,0,-3.7266407012939453)" style="fill:rgb(255, 255, 255);transform:matrix(1, 0, 0, 1, 0, -3.72664);;animation:none"></path>
<path fill="#000" d="M899.5 -46.33377772215486 L899.5 -36 A18 18 0 0 0 936.5 -36 L936.5 -46.33377772215486 A18 18 0 0 0 899.5 -46.33377772215486" transform="matrix(1,0,0,1,0,0)" opacity="0.10989" style="fill:rgb(0, 0, 0);transform:matrix(1, 0, 0, 1, 0, 0);opacity:0.10989;;animation:none"></path>
<path fill="#fff" d="M935.5 -300 L935.5 646.7038947886564 A18 18 0 0 0 972.5 646.7038947886564 L972.5 -300" transform="matrix(1,0,0,1,0,4.2029495439521725e-9)" style="fill:rgb(255, 255, 255);transform:matrix(1, 0, 0, 1, 0, 4.20295e-09);;animation:none"></path>
<path fill="#fff" d="M935.5 595.2304208861552 L935.5 610.7038947886564 A18 18 0 0 0 972.5 610.7038947886564 L972.5 595.2304208861552 A18 18 0 0 0 935.5 595.2304208861552" transform="matrix(1,0,0,1,0,0.0003692697500810027)" opacity="1" style="fill:rgb(255, 255, 255);transform:matrix(1, 0, 0, 1, 0, 0.00036927);;animation:none"></path>
<path fill="#fff" d="M971.5 -300 L971.5 435.5889574171021 A18 18 0 0 1 1008.5 435.5889574171021 L1008.5 -300" transform="matrix(1,0,0,1,0,-0.5015736222267151)" style="fill:rgb(255, 255, 255);transform:matrix(1, 0, 0, 1, 0, -0.501574);;animation:none"></path>
<path fill="#000" d="M971.5 -55.95540400597481 L971.5 -36 A18 18 0 0 0 1008.5 -36 L1008.5 -55.95540400597481 A18 18 0 0 0 971.5 -55.95540400597481" transform="matrix(1,0,0,1,0,0)" opacity="1" style="fill:rgb(0, 0, 0);transform:matrix(1, 0, 0, 1, 0, 0);;animation:none"></path>
<path fill="#fff" d="M1007.5 -300 L1007.5 629.3558550181931 A18 18 0 0 0 1044.5 629.3558550181931 L1044.5 -300" transform="matrix(1,0,0,1,0,9.017083168029785)" style="fill:rgb(255, 255, 255);transform:matrix(1, 0, 0, 1, 0, 9.01708);;animation:none"></path>
<path fill="#fff" d="M1007.5 571.2856170292571 L1007.5 593.3558550181931 A18 18 0 0 0 1044.5 593.3558550181931 L1044.5 571.2856170292571 A18 18 0 0 0 1007.5 571.2856170292571" transform="matrix(1,0,0,1,0,159.0679473876953)" opacity="1" style="fill:rgb(255, 255, 255);transform:matrix(1, 0, 0, 1, 0, 159.068);;animation:none"></path>
<path fill="#fff" d="M1043.5 -300 L1043.5 490.5066084569802 A18 18 0 0 1 1080.5 490.5066084569802 L1080.5 -300" transform="matrix(1,0,0,1,0,-10.987907409667969)" style="fill:rgb(255, 255, 255);transform:matrix(1, 0, 0, 1, 0, -10.9879);;animation:none"></path>
<path fill="#000" d="M1043.5 -54.47741039929342 L1043.5 -36 A18 18 0 0 0 1080.5 -36 L1080.5 -54.47741039929342 A18 18 0 0 0 1043.5 -54.47741039929342" transform="matrix(1,0,0,1,0,0)" opacity="0.439551" style="fill:rgb(0, 0, 0);transform:matrix(1, 0, 0, 1, 0, 0);opacity:0.439551;;animation:none"></path>
<path fill="#fff" d="M1079.5 -300 L1079.5 540.1188202547356 A18 18 0 0 0 1116.5 540.1188202547356 L1116.5 -300" transform="matrix(1,0,0,1,0,12.021239280700684)" style="fill:rgb(255, 255, 255);transform:matrix(1, 0, 0, 1, 0, 12.0212);;animation:none"></path>
<path fill="#fff" d="M1079.5 474.1623563717497 L1079.5 504.1188202547356 A18 18 0 0 0 1116.5 504.1188202547356 L1116.5 474.1623563717497 A18 18 0 0 0 1079.5 474.1623563717497" transform="matrix(1,0,0,1,0,1178.4586181640625)" opacity="0.109882" style="fill:rgb(255, 255, 255);transform:matrix(1, 0, 0, 1, 0, 1178.46);opacity:0.109882;;animation:none"></path>
<path fill="#fff" d="M1115.5 -300 L1115.5 480.32253793586085 A18 18 0 0 1 1152.5 480.32253793586085 L1152.5 -300" transform="matrix(1,0,0,1,0,-14.651805877685547)" style="fill:rgb(255, 255, 255);transform:matrix(1, 0, 0, 1, 0, -14.6518);;animation:none"></path>
<path fill="#000" d="M1115.5 -53.55571729776805 L1115.5 -36 A18 18 0 0 0 1152.5 -36 L1152.5 -53.55571729776805 A18 18 0 0 0 1115.5 -53.55571729776805" transform="matrix(1,0,0,1,0,0)" opacity="0.329669" style="fill:rgb(0, 0, 0);transform:matrix(1, 0, 0, 1, 0, 0);opacity:0.329669;;animation:none"></path>
<path fill="#fff" d="M1151.5 -300 L1151.5 609.6470771892016 A18 18 0 0 0 1188.5 609.6470771892016 L1188.5 -300" transform="matrix(1,0,0,1,0,0.7066688537597656)" style="fill:rgb(255, 255, 255);transform:matrix(1, 0, 0, 1, 0, 0.706669);;animation:none"></path>
<path fill="#fff" d="M1151.5 541.3299092123339 L1151.5 573.6470771892016 A18 18 0 0 0 1188.5 573.6470771892016 L1188.5 541.3299092123339 A18 18 0 0 0 1151.5 541.3299092123339" transform="matrix(1,0,0,1,0,556.1082153320312)" opacity="0.76923" style="fill:rgb(255, 255, 255);transform:matrix(1, 0, 0, 1, 0, 556.108);opacity:0.76923;;animation:none"></path>
<path fill="#fff" d="M1187.5 -300 L1187.5 414.0699679605895 A18 18 0 0 1 1224.5 414.0699679605895 L1224.5 -300" transform="matrix(1,0,0,1,0,-11.954209327697754)" style="fill:rgb(255, 255, 255);transform:matrix(1, 0, 0, 1, 0, -11.9542);;animation:none"></path>
<path fill="#000" d="M1187.5 -63.47918544257967 L1187.5 -36 A18 18 0 0 0 1224.5 -36 L1224.5 -63.47918544257967 A18 18 0 0 0 1187.5 -63.47918544257967" transform="matrix(1,0,0,1,0,0)" opacity="0.549441" style="fill:rgb(0, 0, 0);transform:matrix(1, 0, 0, 1, 0, 0);opacity:0.549441;;animation:none"></path>
<path fill="#fff" d="M1223.5 -300 L1223.5 623.7931479110267 A18 18 0 0 0 1260.5 623.7931479110267 L1260.5 -300" transform="matrix(1,0,0,1,0,21.65008544921875)" style="fill:rgb(255, 255, 255);transform:matrix(1, 0, 0, 1, 0, 21.6501);;animation:none"></path>
<path fill="#fff" d="M1223.5 550.2281681997306 L1223.5 587.7931479110267 A18 18 0 0 0 1260.5 587.7931479110267 L1260.5 550.2281681997306 A18 18 0 0 0 1223.5 550.2281681997306" transform="matrix(1,0,0,1,0,727.7368774414062)" opacity="0.54945" style="fill:rgb(255, 255, 255);transform:matrix(1, 0, 0, 1, 0, 727.737);opacity:0.54945;;animation:none"></path>
<path fill="#fff" d="M1259.5 -300 L1259.5 414.389755850491 A18 18 0 0 1 1296.5 414.389755850491 L1296.5 -300" transform="matrix(1,0,0,1,0,-9.006234169006348)" style="fill:rgb(255, 255, 255);transform:matrix(1, 0, 0, 1, 0, -9.00623);;animation:none"></path>
<path fill="#000" d="M1259.5 -55.716134205889404 L1259.5 -36 A18 18 0 0 0 1296.5 -36 L1296.5 -55.716134205889404 A18 18 0 0 0 1259.5 -55.716134205889404" transform="matrix(1,0,0,1,0,0)" opacity="1" style="fill:rgb(0, 0, 0);transform:matrix(1, 0, 0, 1, 0, 0);;animation:none"></path>
<path fill="#fff" d="M1295.5 -300 L1295.5 687.3876938649291 A18 18 0 0 0 1332.5 687.3876938649291 L1332.5 -300" transform="matrix(1,0,0,1,0,14.953722953796387)" style="fill:rgb(255, 255, 255);transform:matrix(1, 0, 0, 1, 0, 14.9537);;animation:none"></path>
<path fill="#fff" d="M1295.5 635.5505642084803 L1295.5 651.3876938649291 A18 18 0 0 0 1332.5 651.3876938649291 L1332.5 635.5505642084803 A18 18 0 0 0 1295.5 635.5505642084803" transform="matrix(1,0,0,1,0,382.23876953125)" opacity="0.989" style="fill:rgb(255, 255, 255);transform:matrix(1, 0, 0, 1, 0, 382.239);opacity:0.989;;animation:none"></path>
<path fill="#fff" d="M1331.5 -300 L1331.5 500.5649030121592 A18 18 0 0 1 1368.5 500.5649030121592 L1368.5 -300" transform="matrix(1,0,0,1,0,-2.483518600463867)" style="fill:rgb(255, 255, 255);transform:matrix(1, 0, 0, 1, 0, -2.48352);;animation:none"></path>
<path fill="#000" d="M1331.5 -64.70625332305578 L1331.5 -36 A18 18 0 0 0 1368.5 -36 L1368.5 -64.70625332305578 A18 18 0 0 0 1331.5 -64.70625332305578" transform="matrix(1,0,0,1,0,0)" opacity="0.439559" style="fill:rgb(0, 0, 0);transform:matrix(1, 0, 0, 1, 0, 0);opacity:0.439559;;animation:none"></path>
<path fill="#fff" d="M1367.5 -300 L1367.5 618.2294996410046 A18 18 0 0 0 1404.5 618.2294996410046 L1404.5 -300" transform="matrix(1,0,0,1,0,8.583353996276855)" style="fill:rgb(255, 255, 255);transform:matrix(1, 0, 0, 1, 0, 8.58335);;animation:none"></path>
<path fill="#fff" d="M1367.5 567.9937578989956 L1367.5 582.2294996410046 A18 18 0 0 0 1404.5 582.2294996410046 L1404.5 567.9937578989956 A18 18 0 0 0 1367.5 567.9937578989956" transform="matrix(1,0,0,1,0,791.961181640625)" opacity="0.109889" style="fill:rgb(255, 255, 255);transform:matrix(1, 0, 0, 1, 0, 791.961);opacity:0.109889;;animation:none"></path></g></mask></defs>


<rect mask="url(#ldbk-photon-io1r5tm327c-mask)" fill="url(#ldbk-photon-io1r5tm327c-lg)" height="680" width="1391" y="0" x="0" style="fill:url('#ldbk-photon-io1r5tm327c-lg');;animation:none"></rect>
<g></g></g><!-- [ldio] generated by https://loading.io --></svg>