<svg xmlns="http://www.w3.org/2000/svg" viewBox="0 0 1366 2000" preserveAspectRatio="xMidYMid" width="1366" height="2000" xmlns:xlink="http://www.w3.org/1999/xlink" style="shape-rendering:auto;display:block;background-position-x:0%;background-position-y:0%;background-size:auto;background-origin:padding-box;background-clip:border-box;background:scroll rgba(255, 255, 255, 0) none  repeat;width:1366px;height:2000px;;animation:none"><g><defs><linearGradient gradientUnits="userSpaceOnUse" y2="1810" y1="0" x2="0" x1="0" id="ldbk-photon-u7iph8uauko-lg"><stop offset="0" stop-color="#f0b0f9"></stop>

    
<stop offset="1" stop-color="#9500ce"></stop></linearGradient>

  
<mask id="ldbk-photon-u7iph8uauko-mask"><g><path fill="#fff" d="M-0.5 -300 L-0.5 1832.8516107307942 A27.5 27.5 0 0 0 55.5 1832.8516107307942 L55.5 -300" transform="matrix(1,0,0,1,0,0)" style="fill:rgb(255, 255, 255);transform:matrix(1, 0, 0, 1, 0, 0);;animation:none"></path>
<path fill="#fff" d="M-0.5 1762.1585325157246 L-0.5 1777.8516107307942 A27.5 27.5 0 0 0 55.5 1777.8516107307942 L55.5 1762.1585325157246 A27.5 27.5 0 0 0 -0.5 1762.1585325157246" transform="matrix(1,0,0,1,0,0)" opacity="1" style="fill:rgb(255, 255, 255);transform:matrix(1, 0, 0, 1, 0, 0);;animation:none"></path>
<path fill="#fff" d="M54.5 -300 L54.5 1695.5551506606923 A27.5 27.5 0 0 1 110.5 1695.5551506606923 L110.5 -300" transform="matrix(1,0,0,1,0,-38.951107025146484)" style="fill:rgb(255, 255, 255);transform:matrix(1, 0, 0, 1, 0, -38.9511);;animation:none"></path>
<path fill="#000" d="M54.5 -71.78006130299966 L54.5 -55 A27.5 27.5 0 0 0 110.5 -55 L110.5 -71.78006130299966 A27.5 27.5 0 0 0 54.5 -71.78006130299966" transform="matrix(1,0,0,1,0,0)" opacity="1" style="fill:rgb(0, 0, 0);transform:matrix(1, 0, 0, 1, 0, 0);;animation:none"></path>
<path fill="#fff" d="M109.5 -300 L109.5 1847.9761532655891 A27.5 27.5 0 0 0 165.5 1847.9761532655891 L165.5 -300" transform="matrix(1,0,0,1,0,47.7199821472168)" style="fill:rgb(255, 255, 255);transform:matrix(1, 0, 0, 1, 0, 47.72);;animation:none"></path>
<path fill="#fff" d="M109.5 1778.296939953932 L109.5 1792.9761532655891 A27.5 27.5 0 0 0 165.5 1792.9761532655891 L165.5 1778.296939953932 A27.5 27.5 0 0 0 109.5 1778.296939953932" transform="matrix(1,0,0,1,0,1160.816650390625)" opacity="0.4" style="fill:rgb(255, 255, 255);transform:matrix(1, 0, 0, 1, 0, 1160.82);opacity:0.4;;animation:none"></path>
<path fill="#fff" d="M164.5 -300 L164.5 1661.955656210188 A27.5 27.5 0 0 1 220.5 1661.955656210188 L220.5 -300" transform="matrix(1,0,0,1,0,-4.089228630065918)" style="fill:rgb(255, 255, 255);transform:matrix(1, 0, 0, 1, 0, -4.08923);;animation:none"></path>
<path fill="#000" d="M164.5 -78.76822302605038 L164.5 -55.00000000000001 A27.5 27.5 0 0 0 220.5 -55.00000000000001 L220.5 -78.76822302605038 A27.5 27.5 0 0 0 164.5 -78.76822302605038" transform="matrix(1,0,0,1,0,0)" opacity="0.4" style="fill:rgb(0, 0, 0);transform:matrix(1, 0, 0, 1, 0, 0);opacity:0.4;;animation:none"></path>
<path fill="#fff" d="M219.5 -300 L219.5 1812.0264265005221 A27.5 27.5 0 0 0 275.5 1812.0264265005221 L275.5 -300" transform="matrix(1,0,0,1,0,106.3034896850586)" style="fill:rgb(255, 255, 255);transform:matrix(1, 0, 0, 1, 0, 106.303);;animation:none"></path>
<path fill="#fff" d="M219.5 1732.932965427011 L219.5 1757.0264265005221 A27.5 27.5 0 0 0 275.5 1757.0264265005221 L275.5 1732.932965427011 A27.5 27.5 0 0 0 219.5 1732.932965427011" transform="matrix(1,0,0,1,0,1695.01025390625)" opacity="0.0571429" style="fill:rgb(255, 255, 255);transform:matrix(1, 0, 0, 1, 0, 1695.01);opacity:0.0571429;;animation:none"></path>
<path fill="#fff" d="M274.5 -300 L274.5 1635.5128148062272 A27.5 27.5 0 0 1 330.5 1635.5128148062272 L330.5 -300" transform="matrix(1,0,0,1,0,-29.51885223388672)" style="fill:rgb(255, 255, 255);transform:matrix(1, 0, 0, 1, 0, -29.5189);;animation:none"></path>
<path fill="#000" d="M274.5 -69.4439949917564 L274.5 -55 A27.5 27.5 0 0 0 330.5 -55 L330.5 -69.4439949917564 A27.5 27.5 0 0 0 274.5 -69.4439949917564" transform="matrix(1,0,0,1,0,0)" opacity="1" style="fill:rgb(0, 0, 0);transform:matrix(1, 0, 0, 1, 0, 0);;animation:none"></path>
<path fill="#fff" d="M329.5 -300 L329.5 1799.839552910373 A27.5 27.5 0 0 0 385.5 1799.839552910373 L385.5 -300" transform="matrix(1,0,0,1,0,45.830780029296875)" style="fill:rgb(255, 255, 255);transform:matrix(1, 0, 0, 1, 0, 45.8308);;animation:none"></path>
<path fill="#fff" d="M329.5 1713.101903898718 L329.5 1744.839552910373 A27.5 27.5 0 0 0 385.5 1744.839552910373 L385.5 1713.101903898718 A27.5 27.5 0 0 0 329.5 1713.101903898718" transform="matrix(1,0,0,1,0,1535.56298828125)" opacity="0.4" style="fill:rgb(255, 255, 255);transform:matrix(1, 0, 0, 1, 0, 1535.56);opacity:0.4;;animation:none"></path>
<path fill="#fff" d="M384.5 -300 L384.5 1698.5259318771668 A27.5 27.5 0 0 1 440.5 1698.5259318771668 L440.5 -300" transform="matrix(1,0,0,1,0,-14.269210815429688)" style="fill:rgb(255, 255, 255);transform:matrix(1, 0, 0, 1, 0, -14.2692);;animation:none"></path>
<path fill="#000" d="M384.5 -84.40986573929663 L384.5 -55 A27.5 27.5 0 0 0 440.5 -55 L440.5 -84.40986573929663 A27.5 27.5 0 0 0 384.5 -84.40986573929663" transform="matrix(1,0,0,1,0,0)" opacity="0.228571" style="fill:rgb(0, 0, 0);transform:matrix(1, 0, 0, 1, 0, 0);opacity:0.228571;;animation:none"></path>
<path fill="#fff" d="M439.5 -300 L439.5 1861.9362247235135 A27.5 27.5 0 0 0 495.5 1861.9362247235135 L495.5 -300" transform="matrix(1,0,0,1,0,2.83282470703125)" style="fill:rgb(255, 255, 255);transform:matrix(1, 0, 0, 1, 0, 2.83282);;animation:none"></path>
<path fill="#fff" d="M439.5 1773.6161946327454 L439.5 1806.9362247235135 A27.5 27.5 0 0 0 495.5 1806.9362247235135 L495.5 1773.6161946327454 A27.5 27.5 0 0 0 439.5 1773.6161946327454" transform="matrix(1,0,0,1,0,1877.6556396484375)" opacity="0.114286" style="fill:rgb(255, 255, 255);transform:matrix(1, 0, 0, 1, 0, 1877.66);opacity:0.114286;;animation:none"></path>
<path fill="#fff" d="M494.5 -300 L494.5 1746.167396716862 A27.5 27.5 0 0 1 550.5 1746.167396716862 L550.5 -300" transform="matrix(1,0,0,1,0,-4.081972599029541)" style="fill:rgb(255, 255, 255);transform:matrix(1, 0, 0, 1, 0, -4.08197);;animation:none"></path>
<path fill="#000" d="M494.5 -82.40462875245274 L494.5 -54.99999999999999 A27.5 27.5 0 0 0 550.5 -54.99999999999999 L550.5 -82.40462875245274 A27.5 27.5 0 0 0 494.5 -82.40462875245274" transform="matrix(1,0,0,1,0,0)" opacity="1" style="fill:rgb(0, 0, 0);transform:matrix(1, 0, 0, 1, 0, 0);;animation:none"></path>
<path fill="#fff" d="M549.5 -300 L549.5 1868.3883435485454 A27.5 27.5 0 0 0 605.5 1868.3883435485454 L605.5 -300" transform="matrix(1,0,0,1,0,22.951995849609375)" style="fill:rgb(255, 255, 255);transform:matrix(1, 0, 0, 1, 0, 22.952);;animation:none"></path>
<path fill="#fff" d="M549.5 1781.7105715769446 L549.5 1813.3883435485454 A27.5 27.5 0 0 0 605.5 1813.3883435485454 L605.5 1781.7105715769446 A27.5 27.5 0 0 0 549.5 1781.7105715769446" transform="matrix(1,0,0,1,0,685.9411010742188)" opacity="0.857143" style="fill:rgb(255, 255, 255);transform:matrix(1, 0, 0, 1, 0, 685.941);opacity:0.857143;;animation:none"></path>
<path fill="#fff" d="M604.5 -300 L604.5 1660.5732877582977 A27.5 27.5 0 0 1 660.5 1660.5732877582977 L660.5 -300" transform="matrix(1,0,0,1,0,-53.22899627685547)" style="fill:rgb(255, 255, 255);transform:matrix(1, 0, 0, 1, 0, -53.229);;animation:none"></path>
<path fill="#000" d="M604.5 -78.72939029567783 L604.5 -54.99999999999999 A27.5 27.5 0 0 0 660.5 -54.99999999999999 L660.5 -78.72939029567783 A27.5 27.5 0 0 0 604.5 -78.72939029567783" transform="matrix(1,0,0,1,0,0)" opacity="0.971429" style="fill:rgb(0, 0, 0);transform:matrix(1, 0, 0, 1, 0, 0);opacity:0.971429;;animation:none"></path>
<path fill="#fff" d="M659.5 -300 L659.5 1763.20678914059 A27.5 27.5 0 0 0 715.5 1763.20678914059 L715.5 -300" transform="matrix(1,0,0,1,0,6.1982269287109375)" style="fill:rgb(255, 255, 255);transform:matrix(1, 0, 0, 1, 0, 6.19823);;animation:none"></path>
<path fill="#fff" d="M659.5 1682.2972525692744 L659.5 1708.20678914059 A27.5 27.5 0 0 0 715.5 1708.20678914059 L715.5 1682.2972525692744 A27.5 27.5 0 0 0 659.5 1682.2972525692744" transform="matrix(1,0,0,1,0,1523.0198974609375)" opacity="0.171429" style="fill:rgb(255, 255, 255);transform:matrix(1, 0, 0, 1, 0, 1523.02);opacity:0.171429;;animation:none"></path>
<path fill="#fff" d="M714.5 -300 L714.5 1629.5769554831993 A27.5 27.5 0 0 1 770.5 1629.5769554831993 L770.5 -300" transform="matrix(1,0,0,1,0,-85.96791076660156)" style="fill:rgb(255, 255, 255);transform:matrix(1, 0, 0, 1, 0, -85.9679);;animation:none"></path>
<path fill="#000" d="M714.5 -68.56365591823752 L714.5 -54.99999999999999 A27.5 27.5 0 0 0 770.5 -54.99999999999999 L770.5 -68.56365591823752 A27.5 27.5 0 0 0 714.5 -68.56365591823752" transform="matrix(1,0,0,1,0,0)" opacity="0.457143" style="fill:rgb(0, 0, 0);transform:matrix(1, 0, 0, 1, 0, 0);opacity:0.457143;;animation:none"></path>
<path fill="#fff" d="M769.5 -300 L769.5 1710.4629118398746 A27.5 27.5 0 0 0 825.5 1710.4629118398746 L825.5 -300" transform="matrix(1,0,0,1,0,52.01494598388672)" style="fill:rgb(255, 255, 255);transform:matrix(1, 0, 0, 1, 0, 52.0149);;animation:none"></path>
<path fill="#fff" d="M769.5 1615.6774898786382 L769.5 1655.4629118398746 A27.5 27.5 0 0 0 825.5 1655.4629118398746 L825.5 1615.6774898786382 A27.5 27.5 0 0 0 769.5 1615.6774898786382" transform="matrix(1,0,0,1,0,1460.1019287109375)" opacity="0.457143" style="fill:rgb(255, 255, 255);transform:matrix(1, 0, 0, 1, 0, 1460.1);opacity:0.457143;;animation:none"></path>
<path fill="#fff" d="M824.5 -300 L824.5 1603.3585240237644 A27.5 27.5 0 0 1 880.5 1603.3585240237644 L880.5 -300" transform="matrix(1,0,0,1,0,-96.22738647460938)" style="fill:rgb(255, 255, 255);transform:matrix(1, 0, 0, 1, 0, -96.2274);;animation:none"></path>
<path fill="#000" d="M824.5 -74.99285059009176 L824.5 -55.00000000000001 A27.5 27.5 0 0 0 880.5 -55.00000000000001 L880.5 -74.99285059009176 A27.5 27.5 0 0 0 824.5 -74.99285059009176" transform="matrix(1,0,0,1,0,0)" opacity="0.285714" style="fill:rgb(0, 0, 0);transform:matrix(1, 0, 0, 1, 0, 0);opacity:0.285714;;animation:none"></path>
<path fill="#fff" d="M879.5 -300 L879.5 1780.749944890653 A27.5 27.5 0 0 0 935.5 1780.749944890653 L935.5 -300" transform="matrix(1,0,0,1,0,20.08606719970703)" style="fill:rgb(255, 255, 255);transform:matrix(1, 0, 0, 1, 0, 20.0861);;animation:none"></path>
<path fill="#fff" d="M879.5 1687.6522101510204 L879.5 1725.749944890653 A27.5 27.5 0 0 0 935.5 1725.749944890653 L935.5 1687.6522101510204 A27.5 27.5 0 0 0 879.5 1687.6522101510204" transform="matrix(1,0,0,1,0,1468.9237060546875)" opacity="0.342857" style="fill:rgb(255, 255, 255);transform:matrix(1, 0, 0, 1, 0, 1468.92);opacity:0.342857;;animation:none"></path>
<path fill="#fff" d="M934.5 -300 L934.5 1591.504792590172 A27.5 27.5 0 0 1 990.5 1591.504792590172 L990.5 -300" transform="matrix(1,0,0,1,0,-0.7731742262840271)" style="fill:rgb(255, 255, 255);transform:matrix(1, 0, 0, 1, 0, -0.773174);;animation:none"></path>
<path fill="#000" d="M934.5 -79.19742702867802 L934.5 -54.99999999999999 A27.5 27.5 0 0 0 990.5 -54.99999999999999 L990.5 -79.19742702867802 A27.5 27.5 0 0 0 934.5 -79.19742702867802" transform="matrix(1,0,0,1,0,0)" opacity="1" style="fill:rgb(0, 0, 0);transform:matrix(1, 0, 0, 1, 0, 0);;animation:none"></path>
<path fill="#fff" d="M989.5 -300 L989.5 1770.1678802732893 A27.5 27.5 0 0 0 1045.5 1770.1678802732893 L1045.5 -300" transform="matrix(1,0,0,1,0,44.8521842956543)" style="fill:rgb(255, 255, 255);transform:matrix(1, 0, 0, 1, 0, 44.8522);;animation:none"></path>
<path fill="#fff" d="M989.5 1705.0328550074641 L989.5 1715.1678802732893 A27.5 27.5 0 0 0 1045.5 1715.1678802732893 L1045.5 1705.0328550074641 A27.5 27.5 0 0 0 989.5 1705.0328550074641" transform="matrix(1,0,0,1,0,566.6892700195312)" opacity="0.971429" style="fill:rgb(255, 255, 255);transform:matrix(1, 0, 0, 1, 0, 566.689);opacity:0.971429;;animation:none"></path>
<path fill="#fff" d="M1044.5 -300 L1044.5 1605.4650909642762 A27.5 27.5 0 0 1 1100.5 1605.4650909642762 L1100.5 -300" transform="matrix(1,0,0,1,0,-85.89508819580078)" style="fill:rgb(255, 255, 255);transform:matrix(1, 0, 0, 1, 0, -85.8951);;animation:none"></path>
<path fill="#000" d="M1044.5 -89.94814934770022 L1044.5 -55 A27.5 27.5 0 0 0 1100.5 -55 L1100.5 -89.94814934770022 A27.5 27.5 0 0 0 1044.5 -89.94814934770022" transform="matrix(1,0,0,1,0,0)" opacity="0.628571" style="fill:rgb(0, 0, 0);transform:matrix(1, 0, 0, 1, 0, 0);opacity:0.628571;;animation:none"></path>
<path fill="#fff" d="M1099.5 -300 L1099.5 1713.6244716129795 A27.5 27.5 0 0 0 1155.5 1713.6244716129795 L1155.5 -300" transform="matrix(1,0,0,1,0,57.75465393066406)" style="fill:rgb(255, 255, 255);transform:matrix(1, 0, 0, 1, 0, 57.7547);;animation:none"></path>
<path fill="#fff" d="M1099.5 1646.5744231599085 L1099.5 1658.6244716129795 A27.5 27.5 0 0 0 1155.5 1658.6244716129795 L1155.5 1646.5744231599085 A27.5 27.5 0 0 0 1099.5 1646.5744231599085" transform="matrix(1,0,0,1,0,735.7506713867188)" opacity="0.857143" style="fill:rgb(255, 255, 255);transform:matrix(1, 0, 0, 1, 0, 735.751);opacity:0.857143;;animation:none"></path>
<path fill="#fff" d="M1154.5 -300 L1154.5 1600.0564035636244 A27.5 27.5 0 0 1 1210.5 1600.0564035636244 L1210.5 -300" transform="matrix(1,0,0,1,0,-101.68266296386719)" style="fill:rgb(255, 255, 255);transform:matrix(1, 0, 0, 1, 0, -101.683);;animation:none"></path>
<path fill="#000" d="M1154.5 -93.1750049033173 L1154.5 -55 A27.5 27.5 0 0 0 1210.5 -55 L1210.5 -93.1750049033173 A27.5 27.5 0 0 0 1154.5 -93.1750049033173" transform="matrix(1,0,0,1,0,0)" opacity="0.628571" style="fill:rgb(0, 0, 0);transform:matrix(1, 0, 0, 1, 0, 0);opacity:0.628571;;animation:none"></path>
<path fill="#fff" d="M1209.5 -300 L1209.5 1783.9377700111258 A27.5 27.5 0 0 0 1265.5 1783.9377700111258 L1265.5 -300" transform="matrix(1,0,0,1,0,45.743812561035156)" style="fill:rgb(255, 255, 255);transform:matrix(1, 0, 0, 1, 0, 45.7438);;animation:none"></path>
<path fill="#fff" d="M1209.5 1714.3743869137543 L1209.5 1728.9377700111258 A27.5 27.5 0 0 0 1265.5 1728.9377700111258 L1265.5 1714.3743869137543 A27.5 27.5 0 0 0 1209.5 1714.3743869137543" transform="matrix(1,0,0,1,0,1399.798095703125)" opacity="0.514286" style="fill:rgb(255, 255, 255);transform:matrix(1, 0, 0, 1, 0, 1399.8);opacity:0.514286;;animation:none"></path>
<path fill="#fff" d="M1264.5 -300 L1264.5 1667.122416974018 A27.5 27.5 0 0 1 1320.5 1667.122416974018 L1320.5 -300" transform="matrix(1,0,0,1,0,-103.7811279296875)" style="fill:rgb(255, 255, 255);transform:matrix(1, 0, 0, 1, 0, -103.781);;animation:none"></path>
<path fill="#000" d="M1264.5 -93.27058643702927 L1264.5 -55 A27.5 27.5 0 0 0 1320.5 -55 L1320.5 -93.27058643702927 A27.5 27.5 0 0 0 1264.5 -93.27058643702927" transform="matrix(1,0,0,1,0,0)" opacity="0.685714" style="fill:rgb(0, 0, 0);transform:matrix(1, 0, 0, 1, 0, 0);opacity:0.685714;;animation:none"></path>
<path fill="#fff" d="M1319.5 -300 L1319.5 1720.932907380683 A27.5 27.5 0 0 0 1375.5 1720.932907380683 L1375.5 -300" transform="matrix(1,0,0,1,0,48.01108932495117)" style="fill:rgb(255, 255, 255);transform:matrix(1, 0, 0, 1, 0, 48.0111);;animation:none"></path>
<path fill="#fff" d="M1319.5 1649.3390110151715 L1319.5 1665.932907380683 A27.5 27.5 0 0 0 1375.5 1665.932907380683 L1375.5 1649.3390110151715 A27.5 27.5 0 0 0 1319.5 1649.3390110151715" transform="matrix(1,0,0,1,0,1385.1678466796875)" opacity="0.514286" style="fill:rgb(255, 255, 255);transform:matrix(1, 0, 0, 1, 0, 1385.17);opacity:0.514286;;animation:none"></path></g></mask></defs>


<rect mask="url(#ldbk-photon-u7iph8uauko-mask)" fill="url(#ldbk-photon-u7iph8uauko-lg)" height="2000" width="1366" y="0" x="0" style="fill:url('#ldbk-photon-u7iph8uauko-lg');;animation:none"></rect>
<g></g></g><!-- [ldio] generated by https://loading.io --></svg>