<svg xmlns="http://www.w3.org/2000/svg" viewBox="0 0 3000 2000" preserveAspectRatio="xMidYMid" width="3000" height="2000" xmlns:xlink="http://www.w3.org/1999/xlink" style="shape-rendering:auto;display:block;background-position-x:0%;background-position-y:0%;background-size:auto;background-origin:padding-box;background-clip:border-box;background:scroll rgba(255, 255, 255, 0) none  repeat;width:3000px;height:2000px;;animation:none"><g><defs><linearGradient gradientUnits="userSpaceOnUse" y2="1810" y1="0" x2="0" x1="0" id="ldbk-photon-vxsmmgjar5o-lg"><stop offset="0" stop-color="#f0b0f9"></stop>

    
<stop offset="1" stop-color="#9500ce"></stop></linearGradient>

  
<mask id="ldbk-photon-vxsmmgjar5o-mask"><g><path fill="#fff" d="M-0.5 -300 L-0.5 1749.9284003531243 A27 27 0 0 0 54.5 1749.9284003531243 L54.5 -300" transform="matrix(1,0,0,1,0,0)" style="fill:rgb(255, 255, 255);transform:matrix(1, 0, 0, 1, 0, 0);;animation:none"></path>
<path fill="#fff" d="M-0.5 1662.1115899299741 L-0.5 1695.9284003531243 A27 27 0 0 0 54.5 1695.9284003531243 L54.5 1662.1115899299741 A27 27 0 0 0 -0.5 1662.1115899299741" transform="matrix(1,0,0,1,0,0)" opacity="1" style="fill:rgb(255, 255, 255);transform:matrix(1, 0, 0, 1, 0, 0);;animation:none"></path>
<path fill="#fff" d="M53.5 -300 L53.5 1682.6574149567793 A27 27 0 0 1 108.5 1682.6574149567793 L108.5 -300" transform="matrix(1,0,0,1,0,-5.546535491943359)" style="fill:rgb(255, 255, 255);transform:matrix(1, 0, 0, 1, 0, -5.54654);;animation:none"></path>
<path fill="#000" d="M53.5 -88.9438757029704 L53.5 -54 A27 27 0 0 0 108.5 -54 L108.5 -88.9438757029704 A27 27 0 0 0 53.5 -88.9438757029704" transform="matrix(1,0,0,1,0,0)" opacity="1" style="fill:rgb(0, 0, 0);transform:matrix(1, 0, 0, 1, 0, 0);;animation:none"></path>
<path fill="#fff" d="M107.5 -300 L107.5 1745.6118733513429 A27 27 0 0 0 162.5 1745.6118733513429 L162.5 -300" transform="matrix(1,0,0,1,0,7.726628303527832)" style="fill:rgb(255, 255, 255);transform:matrix(1, 0, 0, 1, 0, 7.72663);;animation:none"></path>
<path fill="#fff" d="M107.5 1672.135517419737 L107.5 1691.6118733513429 A27 27 0 0 0 162.5 1691.6118733513429 L162.5 1672.135517419737 A27 27 0 0 0 107.5 1672.135517419737" transform="matrix(1,0,0,1,0,405.98675537109375)" opacity="1" style="fill:rgb(255, 255, 255);transform:matrix(1, 0, 0, 1, 0, 405.987);;animation:none"></path>
<path fill="#fff" d="M161.5 -300 L161.5 1650.4818287019527 A27 27 0 0 1 216.5 1650.4818287019527 L216.5 -300" transform="matrix(1,0,0,1,0,-93.21173858642578)" style="fill:rgb(255, 255, 255);transform:matrix(1, 0, 0, 1, 0, -93.2117);;animation:none"></path>
<path fill="#000" d="M161.5 -87.64773049784858 L161.5 -53.99999999999999 A27 27 0 0 0 216.5 -53.99999999999999 L216.5 -87.64773049784858 A27 27 0 0 0 161.5 -87.64773049784858" transform="matrix(1,0,0,1,0,0)" opacity="0.739796" style="fill:rgb(0, 0, 0);transform:matrix(1, 0, 0, 1, 0, 0);opacity:0.739796;;animation:none"></path>
<path fill="#fff" d="M215.5 -300 L215.5 1805.5758014731668 A27 27 0 0 0 270.5 1805.5758014731668 L270.5 -300" transform="matrix(1,0,0,1,0,40.81018829345703)" style="fill:rgb(255, 255, 255);transform:matrix(1, 0, 0, 1, 0, 40.8102);;animation:none"></path>
<path fill="#fff" d="M215.5 1722.069446179034 L215.5 1751.5758014731668 A27 27 0 0 0 270.5 1751.5758014731668 L270.5 1722.069446179034 A27 27 0 0 0 215.5 1722.069446179034" transform="matrix(1,0,0,1,0,565.0752563476562)" opacity="1" style="fill:rgb(255, 255, 255);transform:matrix(1, 0, 0, 1, 0, 565.075);;animation:none"></path>
<path fill="#fff" d="M269.5 -300 L269.5 1707.8317866548623 A27 27 0 0 1 324.5 1707.8317866548623 L324.5 -300" transform="matrix(1,0,0,1,0,-23.160423278808594)" style="fill:rgb(255, 255, 255);transform:matrix(1, 0, 0, 1, 0, -23.1604);;animation:none"></path>
<path fill="#000" d="M269.5 -91.11179498405579 L269.5 -54 A27 27 0 0 0 324.5 -54 L324.5 -91.11179498405579 A27 27 0 0 0 269.5 -91.11179498405579" transform="matrix(1,0,0,1,0,0)" opacity="1" style="fill:rgb(0, 0, 0);transform:matrix(1, 0, 0, 1, 0, 0);;animation:none"></path>
<path fill="#fff" d="M323.5 -300 L323.5 1806.369083119668 A27 27 0 0 0 378.5 1806.369083119668 L378.5 -300" transform="matrix(1,0,0,1,0,0.5117645263671875)" style="fill:rgb(255, 255, 255);transform:matrix(1, 0, 0, 1, 0, 0.511765);;animation:none"></path>
<path fill="#fff" d="M323.5 1722.5012706094385 L323.5 1752.369083119668 A27 27 0 0 0 378.5 1752.369083119668 L378.5 1722.5012706094385 A27 27 0 0 0 323.5 1722.5012706094385" transform="matrix(1,0,0,1,0,803.276123046875)" opacity="0.969388" style="fill:rgb(255, 255, 255);transform:matrix(1, 0, 0, 1, 0, 803.276);opacity:0.969388;;animation:none"></path>
<path fill="#fff" d="M377.5 -300 L377.5 1654.2344535281334 A27 27 0 0 1 432.5 1654.2344535281334 L432.5 -300" transform="matrix(1,0,0,1,0,-47.89448165893555)" style="fill:rgb(255, 255, 255);transform:matrix(1, 0, 0, 1, 0, -47.8945);;animation:none"></path>
<path fill="#000" d="M377.5 -68.8040278913659 L377.5 -54 A27 27 0 0 0 432.5 -54 L432.5 -68.8040278913659 A27 27 0 0 0 377.5 -68.8040278913659" transform="matrix(1,0,0,1,0,0)" opacity="1" style="fill:rgb(0, 0, 0);transform:matrix(1, 0, 0, 1, 0, 0);;animation:none"></path>
<path fill="#fff" d="M431.5 -300 L431.5 1833.0520927712907 A27 27 0 0 0 486.5 1833.0520927712907 L486.5 -300" transform="matrix(1,0,0,1,0,65.2361831665039)" style="fill:rgb(255, 255, 255);transform:matrix(1, 0, 0, 1, 0, 65.2362);;animation:none"></path>
<path fill="#fff" d="M431.5 1760.2020357032998 L431.5 1779.0520927712907 A27 27 0 0 0 486.5 1779.0520927712907 L486.5 1760.2020357032998 A27 27 0 0 0 431.5 1760.2020357032998" transform="matrix(1,0,0,1,0,974.3310546875)" opacity="1" style="fill:rgb(255, 255, 255);transform:matrix(1, 0, 0, 1, 0, 974.331);;animation:none"></path>
<path fill="#fff" d="M485.5 -300 L485.5 1698.6601522502922 A27 27 0 0 1 540.5 1698.6601522502922 L540.5 -300" transform="matrix(1,0,0,1,0,-63.16162872314453)" style="fill:rgb(255, 255, 255);transform:matrix(1, 0, 0, 1, 0, -63.1616);;animation:none"></path>
<path fill="#000" d="M485.5 -65.78479926942099 L485.5 -54 A27 27 0 0 0 540.5 -54 L540.5 -65.78479926942099 A27 27 0 0 0 485.5 -65.78479926942099" transform="matrix(1,0,0,1,0,0)" opacity="0.790816" style="fill:rgb(0, 0, 0);transform:matrix(1, 0, 0, 1, 0, 0);opacity:0.790816;;animation:none"></path>
<path fill="#fff" d="M539.5 -300 L539.5 1831.5641344568864 A27 27 0 0 0 594.5 1831.5641344568864 L594.5 -300" transform="matrix(1,0,0,1,0,86.13251495361328)" style="fill:rgb(255, 255, 255);transform:matrix(1, 0, 0, 1, 0, 86.1325);;animation:none"></path>
<path fill="#fff" d="M539.5 1744.2612262601117 L539.5 1777.5641344568864 A27 27 0 0 0 594.5 1777.5641344568864 L594.5 1744.2612262601117 A27 27 0 0 0 539.5 1744.2612262601117" transform="matrix(1,0,0,1,0,2117.5634765625)" opacity="0.561224" style="fill:rgb(255, 255, 255);transform:matrix(1, 0, 0, 1, 0, 2117.56);opacity:0.561224;;animation:none"></path>
<path fill="#fff" d="M593.5 -300 L593.5 1644.9566712879391 A27 27 0 0 1 648.5 1644.9566712879391 L648.5 -300" transform="matrix(1,0,0,1,0,-45.425254821777344)" style="fill:rgb(255, 255, 255);transform:matrix(1, 0, 0, 1, 0, -45.4253);;animation:none"></path>
<path fill="#000" d="M593.5 -91.13654006549851 L593.5 -54.00000000000001 A27 27 0 0 0 648.5 -54.00000000000001 L648.5 -91.13654006549851 A27 27 0 0 0 593.5 -91.13654006549851" transform="matrix(1,0,0,1,0,0)" opacity="0.331633" style="fill:rgb(0, 0, 0);transform:matrix(1, 0, 0, 1, 0, 0);opacity:0.331633;;animation:none"></path>
<path fill="#fff" d="M647.5 -300 L647.5 1783.8657266799717 A27 27 0 0 0 702.5 1783.8657266799717 L702.5 -300" transform="matrix(1,0,0,1,0,3.1002960205078125)" style="fill:rgb(255, 255, 255);transform:matrix(1, 0, 0, 1, 0, 3.1003);;animation:none"></path>
<path fill="#fff" d="M647.5 1708.0450786042936 L647.5 1729.8657266799717 A27 27 0 0 0 702.5 1729.8657266799717 L702.5 1708.0450786042936 A27 27 0 0 0 647.5 1708.0450786042936" transform="matrix(1,0,0,1,0,3518.086181640625)" opacity="0.102041" style="fill:rgb(255, 255, 255);transform:matrix(1, 0, 0, 1, 0, 3518.09);opacity:0.102041;;animation:none"></path>
<path fill="#fff" d="M701.5 -300 L701.5 1670.3344596939428 A27 27 0 0 1 756.5 1670.3344596939428 L756.5 -300" transform="matrix(1,0,0,1,0,-3.2547061443328857)" style="fill:rgb(255, 255, 255);transform:matrix(1, 0, 0, 1, 0, -3.25471);;animation:none"></path>
<path fill="#000" d="M701.5 -73.19512577403776 L701.5 -54 A27 27 0 0 0 756.5 -54 L756.5 -73.19512577403776 A27 27 0 0 0 701.5 -73.19512577403776" transform="matrix(1,0,0,1,0,0)" opacity="0.433673" style="fill:rgb(0, 0, 0);transform:matrix(1, 0, 0, 1, 0, 0);opacity:0.433673;;animation:none"></path>
<path fill="#fff" d="M755.5 -300 L755.5 1859.3767001177239 A27 27 0 0 0 810.5 1859.3767001177239 L810.5 -300" transform="matrix(1,0,0,1,0,38.63916778564453)" style="fill:rgb(255, 255, 255);transform:matrix(1, 0, 0, 1, 0, 38.6392);;animation:none"></path>
<path fill="#fff" d="M755.5 1789.3800043755962 L755.5 1805.3767001177239 A27 27 0 0 0 810.5 1805.3767001177239 L810.5 1789.3800043755962 A27 27 0 0 0 755.5 1789.3800043755962" transform="matrix(1,0,0,1,0,757.916259765625)" opacity="1" style="fill:rgb(255, 255, 255);transform:matrix(1, 0, 0, 1, 0, 757.916);;animation:none"></path>
<path fill="#fff" d="M809.5 -300 L809.5 1704.5543366111474 A27 27 0 0 1 864.5 1704.5543366111474 L864.5 -300" transform="matrix(1,0,0,1,0,-59.995853424072266)" style="fill:rgb(255, 255, 255);transform:matrix(1, 0, 0, 1, 0, -59.9959);;animation:none"></path>
<path fill="#000" d="M809.5 -70.1122154382486 L809.5 -54 A27 27 0 0 0 864.5 -54 L864.5 -70.1122154382486 A27 27 0 0 0 809.5 -70.1122154382486" transform="matrix(1,0,0,1,0,0)" opacity="0.561224" style="fill:rgb(0, 0, 0);transform:matrix(1, 0, 0, 1, 0, 0);opacity:0.561224;;animation:none"></path>
<path fill="#fff" d="M863.5 -300 L863.5 1867.5030996835994 A27 27 0 0 0 918.5 1867.5030996835994 L918.5 -300" transform="matrix(1,0,0,1,0,57.183876037597656)" style="fill:rgb(255, 255, 255);transform:matrix(1, 0, 0, 1, 0, 57.1839);;animation:none"></path>
<path fill="#fff" d="M863.5 1785.6171974617596 L863.5 1813.5030996835994 A27 27 0 0 0 918.5 1813.5030996835994 L918.5 1785.6171974617596 A27 27 0 0 0 863.5 1785.6171974617596" transform="matrix(1,0,0,1,0,3059.7138671875)" opacity="0.204082" style="fill:rgb(255, 255, 255);transform:matrix(1, 0, 0, 1, 0, 3059.71);opacity:0.204082;;animation:none"></path>
<path fill="#fff" d="M917.5 -300 L917.5 1724.224920370681 A27 27 0 0 1 972.5 1724.224920370681 L972.5 -300" transform="matrix(1,0,0,1,0,-19.52819061279297)" style="fill:rgb(255, 255, 255);transform:matrix(1, 0, 0, 1, 0, -19.5282);;animation:none"></path>
<path fill="#000" d="M917.5 -65.34663109868667 L917.5 -53.99999999999999 A27 27 0 0 0 972.5 -53.99999999999999 L972.5 -65.34663109868667 A27 27 0 0 0 917.5 -65.34663109868667" transform="matrix(1,0,0,1,0,0)" opacity="0.382653" style="fill:rgb(0, 0, 0);transform:matrix(1, 0, 0, 1, 0, 0);opacity:0.382653;;animation:none"></path>
<path fill="#fff" d="M971.5 -300 L971.5 1811.507787789993 A27 27 0 0 0 1026.5 1811.507787789993 L1026.5 -300" transform="matrix(1,0,0,1,0,6.2664794921875)" style="fill:rgb(255, 255, 255);transform:matrix(1, 0, 0, 1, 0, 6.26648);;animation:none"></path>
<path fill="#fff" d="M971.5 1724.9672471740748 L971.5 1757.507787789993 A27 27 0 0 0 1026.5 1757.507787789993 L1026.5 1724.9672471740748 A27 27 0 0 0 971.5 1724.9672471740748" transform="matrix(1,0,0,1,0,2342.825927734375)" opacity="0.0510204" style="fill:rgb(255, 255, 255);transform:matrix(1, 0, 0, 1, 0, 2342.83);opacity:0.0510204;;animation:none"></path>
<path fill="#fff" d="M1025.5 -300 L1025.5 1641.573695874484 A27 27 0 0 1 1080.5 1641.573695874484 L1080.5 -300" transform="matrix(1,0,0,1,0,-0.4900473952293396)" style="fill:rgb(255, 255, 255);transform:matrix(1, 0, 0, 1, 0, -0.490047);;animation:none"></path>
<path fill="#000" d="M1025.5 -78.6353009700515 L1025.5 -53.99999999999999 A27 27 0 0 0 1080.5 -53.99999999999999 L1080.5 -78.6353009700515 A27 27 0 0 0 1025.5 -78.6353009700515" transform="matrix(1,0,0,1,0,0)" opacity="1" style="fill:rgb(0, 0, 0);transform:matrix(1, 0, 0, 1, 0, 0);;animation:none"></path>
<path fill="#fff" d="M1079.5 -300 L1079.5 1843.7180545776318 A27 27 0 0 0 1134.5 1843.7180545776318 L1134.5 -300" transform="matrix(1,0,0,1,0,22.65036392211914)" style="fill:rgb(255, 255, 255);transform:matrix(1, 0, 0, 1, 0, 22.6504);;animation:none"></path>
<path fill="#fff" d="M1079.5 1755.3710638212865 L1079.5 1789.7180545776318 A27 27 0 0 0 1134.5 1789.7180545776318 L1134.5 1755.3710638212865 A27 27 0 0 0 1079.5 1755.3710638212865" transform="matrix(1,0,0,1,0,521.7938232421875)" opacity="1" style="fill:rgb(255, 255, 255);transform:matrix(1, 0, 0, 1, 0, 521.794);;animation:none"></path>
<path fill="#fff" d="M1133.5 -300 L1133.5 1740.794280801968 A27 27 0 0 1 1188.5 1740.794280801968 L1188.5 -300" transform="matrix(1,0,0,1,0,-46.12510681152344)" style="fill:rgb(255, 255, 255);transform:matrix(1, 0, 0, 1, 0, -46.1251);;animation:none"></path>
<path fill="#000" d="M1133.5 -86.75610030502266 L1133.5 -54 A27 27 0 0 0 1188.5 -54 L1188.5 -86.75610030502266 A27 27 0 0 0 1133.5 -86.75610030502266" transform="matrix(1,0,0,1,0,0)" opacity="1" style="fill:rgb(0, 0, 0);transform:matrix(1, 0, 0, 1, 0, 0);;animation:none"></path>
<path fill="#fff" d="M1187.5 -300 L1187.5 1848.3596159815731 A27 27 0 0 0 1242.5 1848.3596159815731 L1242.5 -300" transform="matrix(1,0,0,1,0,20.800827026367188)" style="fill:rgb(255, 255, 255);transform:matrix(1, 0, 0, 1, 0, 20.8008);;animation:none"></path>
<path fill="#fff" d="M1187.5 1770.5659968716077 L1187.5 1794.3596159815731 A27 27 0 0 0 1242.5 1794.3596159815731 L1242.5 1770.5659968716077 A27 27 0 0 0 1187.5 1770.5659968716077" transform="matrix(1,0,0,1,0,607.4086303710938)" opacity="1" style="fill:rgb(255, 255, 255);transform:matrix(1, 0, 0, 1, 0, 607.409);;animation:none"></path>
<path fill="#fff" d="M1241.5 -300 L1241.5 1714.7662051356142 A27 27 0 0 1 1296.5 1714.7662051356142 L1296.5 -300" transform="matrix(1,0,0,1,0,-29.34259033203125)" style="fill:rgb(255, 255, 255);transform:matrix(1, 0, 0, 1, 0, -29.3426);;animation:none"></path>
<path fill="#000" d="M1241.5 -75.79756778682476 L1241.5 -54 A27 27 0 0 0 1296.5 -54 L1296.5 -75.79756778682476 A27 27 0 0 0 1241.5 -75.79756778682476" transform="matrix(1,0,0,1,0,0)" opacity="1" style="fill:rgb(0, 0, 0);transform:matrix(1, 0, 0, 1, 0, 0);;animation:none"></path>
<path fill="#fff" d="M1295.5 -300 L1295.5 1828.6298269877184 A27 27 0 0 0 1350.5 1828.6298269877184 L1350.5 -300" transform="matrix(1,0,0,1,0,16.00018310546875)" style="fill:rgb(255, 255, 255);transform:matrix(1, 0, 0, 1, 0, 16.0002);;animation:none"></path>
<path fill="#fff" d="M1295.5 1759.7458415378 L1295.5 1774.6298269877184 A27 27 0 0 0 1350.5 1774.6298269877184 L1350.5 1759.7458415378 A27 27 0 0 0 1295.5 1759.7458415378" transform="matrix(1,0,0,1,0,809.9564819335938)" opacity="1" style="fill:rgb(255, 255, 255);transform:matrix(1, 0, 0, 1, 0, 809.956);;animation:none"></path>
<path fill="#fff" d="M1349.5 -300 L1349.5 1622.3374171400617 A27 27 0 0 1 1404.5 1622.3374171400617 L1404.5 -300" transform="matrix(1,0,0,1,0,-53.67428970336914)" style="fill:rgb(255, 255, 255);transform:matrix(1, 0, 0, 1, 0, -53.6743);;animation:none"></path>
<path fill="#000" d="M1349.5 -78.89298964396188 L1349.5 -54 A27 27 0 0 0 1404.5 -54 L1404.5 -78.89298964396188 A27 27 0 0 0 1349.5 -78.89298964396188" transform="matrix(1,0,0,1,0,0)" opacity="0.943878" style="fill:rgb(0, 0, 0);transform:matrix(1, 0, 0, 1, 0, 0);opacity:0.943878;;animation:none"></path>
<path fill="#fff" d="M1403.5 -300 L1403.5 1769.6198800918478 A27 27 0 0 0 1458.5 1769.6198800918478 L1458.5 -300" transform="matrix(1,0,0,1,0,21.596590042114258)" style="fill:rgb(255, 255, 255);transform:matrix(1, 0, 0, 1, 0, 21.5966);;animation:none"></path>
<path fill="#fff" d="M1403.5 1700.5647691587326 L1403.5 1715.6198800918478 A27 27 0 0 0 1458.5 1715.6198800918478 L1458.5 1700.5647691587326 A27 27 0 0 0 1403.5 1700.5647691587326" transform="matrix(1,0,0,1,0,1294.0599365234375)" opacity="0.867347" style="fill:rgb(255, 255, 255);transform:matrix(1, 0, 0, 1, 0, 1294.06);opacity:0.867347;;animation:none"></path>
<path fill="#fff" d="M1457.5 -300 L1457.5 1628.4456633867014 A27 27 0 0 1 1512.5 1628.4456633867014 L1512.5 -300" transform="matrix(1,0,0,1,0,-58.82218933105469)" style="fill:rgb(255, 255, 255);transform:matrix(1, 0, 0, 1, 0, -58.8222);;animation:none"></path>
<path fill="#000" d="M1457.5 -70.26536111443292 L1457.5 -53.99999999999999 A27 27 0 0 0 1512.5 -53.99999999999999 L1512.5 -70.26536111443292 A27 27 0 0 0 1457.5 -70.26536111443292" transform="matrix(1,0,0,1,0,0)" opacity="0.790816" style="fill:rgb(0, 0, 0);transform:matrix(1, 0, 0, 1, 0, 0);opacity:0.790816;;animation:none"></path>
<path fill="#fff" d="M1511.5 -300 L1511.5 1741.0685519903222 A27 27 0 0 0 1566.5 1741.0685519903222 L1566.5 -300" transform="matrix(1,0,0,1,0,0)" style="fill:rgb(255, 255, 255);transform:matrix(1, 0, 0, 1, 0, 0);;animation:none"></path>
<path fill="#fff" d="M1511.5 1657.4618927809247 L1511.5 1687.0685519903222 A27 27 0 0 0 1566.5 1687.0685519903222 L1566.5 1657.4618927809247 A27 27 0 0 0 1511.5 1657.4618927809247" transform="matrix(1,0,0,1,0,1449.3778076171875)" opacity="0.714286" style="fill:rgb(255, 255, 255);transform:matrix(1, 0, 0, 1, 0, 1449.38);opacity:0.714286;;animation:none"></path>
<path fill="#fff" d="M1565.5 -300 L1565.5 1687.6358195219827 A27 27 0 0 1 1620.5 1687.6358195219827 L1620.5 -300" transform="matrix(1,0,0,1,0,-86.45677185058594)" style="fill:rgb(255, 255, 255);transform:matrix(1, 0, 0, 1, 0, -86.4568);;animation:none"></path>
<path fill="#000" d="M1565.5 -84.47495894546176 L1565.5 -54 A27 27 0 0 0 1620.5 -54 L1620.5 -84.47495894546176 A27 27 0 0 0 1565.5 -84.47495894546176" transform="matrix(1,0,0,1,0,0)" opacity="1" style="fill:rgb(0, 0, 0);transform:matrix(1, 0, 0, 1, 0, 0);;animation:none"></path>
<path fill="#fff" d="M1619.5 -300 L1619.5 1848.1812384451773 A27 27 0 0 0 1674.5 1848.1812384451773 L1674.5 -300" transform="matrix(1,0,0,1,0,37.88062286376953)" style="fill:rgb(255, 255, 255);transform:matrix(1, 0, 0, 1, 0, 37.8806);;animation:none"></path>
<path fill="#fff" d="M1619.5 1770.905805520207 L1619.5 1794.1812384451773 A27 27 0 0 0 1674.5 1794.1812384451773 L1674.5 1770.905805520207 A27 27 0 0 0 1619.5 1770.905805520207" transform="matrix(1,0,0,1,0,2212.751708984375)" opacity="0.561224" style="fill:rgb(255, 255, 255);transform:matrix(1, 0, 0, 1, 0, 2212.75);opacity:0.561224;;animation:none"></path>
<path fill="#fff" d="M1673.5 -300 L1673.5 1677.3316576346158 A27 27 0 0 1 1728.5 1677.3316576346158 L1728.5 -300" transform="matrix(1,0,0,1,0,-86.482177734375)" style="fill:rgb(255, 255, 255);transform:matrix(1, 0, 0, 1, 0, -86.4822);;animation:none"></path>
<path fill="#000" d="M1673.5 -79.76919495063169 L1673.5 -54 A27 27 0 0 0 1728.5 -54 L1728.5 -79.76919495063169 A27 27 0 0 0 1673.5 -79.76919495063169" transform="matrix(1,0,0,1,0,0)" opacity="0.969388" style="fill:rgb(0, 0, 0);transform:matrix(1, 0, 0, 1, 0, 0);opacity:0.969388;;animation:none"></path>
<path fill="#fff" d="M1727.5 -300 L1727.5 1731.0304527304106 A27 27 0 0 0 1782.5 1731.0304527304106 L1782.5 -300" transform="matrix(1,0,0,1,0,57.219390869140625)" style="fill:rgb(255, 255, 255);transform:matrix(1, 0, 0, 1, 0, 57.2194);;animation:none"></path>
<path fill="#fff" d="M1727.5 1655.823326916038 L1727.5 1677.0304527304106 A27 27 0 0 0 1782.5 1677.0304527304106 L1782.5 1655.823326916038 A27 27 0 0 0 1727.5 1655.823326916038" transform="matrix(1,0,0,1,0,1140.428955078125)" opacity="0.816327" style="fill:rgb(255, 255, 255);transform:matrix(1, 0, 0, 1, 0, 1140.43);opacity:0.816327;;animation:none"></path>
<path fill="#fff" d="M1781.5 -300 L1781.5 1597.995762546618 A27 27 0 0 1 1836.5 1597.995762546618 L1836.5 -300" transform="matrix(1,0,0,1,0,-32.24228286743164)" style="fill:rgb(255, 255, 255);transform:matrix(1, 0, 0, 1, 0, -32.2423);;animation:none"></path>
<path fill="#000" d="M1781.5 -70.64244376001051 L1781.5 -54 A27 27 0 0 0 1836.5 -54 L1836.5 -70.64244376001051 A27 27 0 0 0 1781.5 -70.64244376001051" transform="matrix(1,0,0,1,0,0)" opacity="0.663265" style="fill:rgb(0, 0, 0);transform:matrix(1, 0, 0, 1, 0, 0);opacity:0.663265;;animation:none"></path>
<path fill="#fff" d="M1835.5 -300 L1835.5 1827.0398028155444 A27 27 0 0 0 1890.5 1827.0398028155444 L1890.5 -300" transform="matrix(1,0,0,1,0,95.94122314453125)" style="fill:rgb(255, 255, 255);transform:matrix(1, 0, 0, 1, 0, 95.9412);;animation:none"></path>
<path fill="#fff" d="M1835.5 1750.0306077771727 L1835.5 1773.0398028155444 A27 27 0 0 0 1890.5 1773.0398028155444 L1890.5 1750.0306077771727 A27 27 0 0 0 1835.5 1750.0306077771727" transform="matrix(1,0,0,1,0,2406.109130859375)" opacity="0.255102" style="fill:rgb(255, 255, 255);transform:matrix(1, 0, 0, 1, 0, 2406.11);opacity:0.255102;;animation:none"></path>
<path fill="#fff" d="M1889.5 -300 L1889.5 1666.2522548051925 A27 27 0 0 1 1944.5 1666.2522548051925 L1944.5 -300" transform="matrix(1,0,0,1,0,-12.450492858886719)" style="fill:rgb(255, 255, 255);transform:matrix(1, 0, 0, 1, 0, -12.4505);;animation:none"></path>
<path fill="#000" d="M1889.5 -76.9713362640568 L1889.5 -54 A27 27 0 0 0 1944.5 -54 L1944.5 -76.9713362640568 A27 27 0 0 0 1889.5 -76.9713362640568" transform="matrix(1,0,0,1,0,0)" opacity="0.535714" style="fill:rgb(0, 0, 0);transform:matrix(1, 0, 0, 1, 0, 0);opacity:0.535714;;animation:none"></path>
<path fill="#fff" d="M1943.5 -300 L1943.5 1708.3454985641754 A27 27 0 0 0 1998.5 1708.3454985641754 L1998.5 -300" transform="matrix(1,0,0,1,0,3.0194168090820312)" style="fill:rgb(255, 255, 255);transform:matrix(1, 0, 0, 1, 0, 3.01942);;animation:none"></path>
<path fill="#fff" d="M1943.5 1623.6121682729508 L1943.5 1654.3454985641754 A27 27 0 0 0 1998.5 1654.3454985641754 L1998.5 1623.6121682729508 A27 27 0 0 0 1943.5 1623.6121682729508" transform="matrix(1,0,0,1,0,2502.060302734375)" opacity="0.102041" style="fill:rgb(255, 255, 255);transform:matrix(1, 0, 0, 1, 0, 2502.06);opacity:0.102041;;animation:none"></path>
<path fill="#fff" d="M1997.5 -300 L1997.5 1617.808114194019 A27 27 0 0 1 2052.5 1617.808114194019 L2052.5 -300" transform="matrix(1,0,0,1,0,-0.18841552734375)" style="fill:rgb(255, 255, 255);transform:matrix(1, 0, 0, 1, 0, -0.188416);;animation:none"></path>
<path fill="#000" d="M1997.5 -87.9418475527801 L1997.5 -54 A27 27 0 0 0 2052.5 -54 L2052.5 -87.9418475527801 A27 27 0 0 0 1997.5 -87.9418475527801" transform="matrix(1,0,0,1,0,0)" opacity="0.0510204" style="fill:rgb(0, 0, 0);transform:matrix(1, 0, 0, 1, 0, 0);opacity:0.0510204;;animation:none"></path>
<path fill="#fff" d="M2051.5 -300 L2051.5 1722.6183863059352 A27 27 0 0 0 2106.5 1722.6183863059352 L2106.5 -300" transform="matrix(1,0,0,1,0,5.524347305297852)" style="fill:rgb(255, 255, 255);transform:matrix(1, 0, 0, 1, 0, 5.52435);;animation:none"></path>
<path fill="#fff" d="M2051.5 1652.082546929361 L2051.5 1668.6183863059352 A27 27 0 0 0 2106.5 1668.6183863059352 L2106.5 1652.082546929361 A27 27 0 0 0 2051.5 1652.082546929361" transform="matrix(1,0,0,1,0,120.0132064819336)" opacity="1" style="fill:rgb(255, 255, 255);transform:matrix(1, 0, 0, 1, 0, 120.013);;animation:none"></path>
<path fill="#fff" d="M2105.5 -300 L2105.5 1582.1772942887444 A27 27 0 0 1 2160.5 1582.1772942887444 L2160.5 -300" transform="matrix(1,0,0,1,0,-28.003549575805664)" style="fill:rgb(255, 255, 255);transform:matrix(1, 0, 0, 1, 0, -28.0035);;animation:none"></path>
<path fill="#000" d="M2105.5 -71.55284179056227 L2105.5 -54.00000000000001 A27 27 0 0 0 2160.5 -54.00000000000001 L2160.5 -71.55284179056227 A27 27 0 0 0 2105.5 -71.55284179056227" transform="matrix(1,0,0,1,0,0)" opacity="1" style="fill:rgb(0, 0, 0);transform:matrix(1, 0, 0, 1, 0, 0);;animation:none"></path>
<path fill="#fff" d="M2159.5 -300 L2159.5 1794.8274347266045 A27 27 0 0 0 2214.5 1794.8274347266045 L2214.5 -300" transform="matrix(1,0,0,1,0,41.62101364135742)" style="fill:rgb(255, 255, 255);transform:matrix(1, 0, 0, 1, 0, 41.621);;animation:none"></path>
<path fill="#fff" d="M2159.5 1724.3956238007818 L2159.5 1740.8274347266045 A27 27 0 0 0 2214.5 1740.8274347266045 L2214.5 1724.3956238007818 A27 27 0 0 0 2159.5 1724.3956238007818" transform="matrix(1,0,0,1,0,890.232666015625)" opacity="1" style="fill:rgb(255, 255, 255);transform:matrix(1, 0, 0, 1, 0, 890.233);;animation:none"></path>
<path fill="#fff" d="M2213.5 -300 L2213.5 1595.3809003690312 A27 27 0 0 1 2268.5 1595.3809003690312 L2268.5 -300" transform="matrix(1,0,0,1,0,-84.60065460205078)" style="fill:rgb(255, 255, 255);transform:matrix(1, 0, 0, 1, 0, -84.6007);;animation:none"></path>
<path fill="#000" d="M2213.5 -64.03632314710329 L2213.5 -54 A27 27 0 0 0 2268.5 -54 L2268.5 -64.03632314710329 A27 27 0 0 0 2213.5 -64.03632314710329" transform="matrix(1,0,0,1,0,0)" opacity="0.867347" style="fill:rgb(0, 0, 0);transform:matrix(1, 0, 0, 1, 0, 0);opacity:0.867347;;animation:none"></path>
<path fill="#fff" d="M2267.5 -300 L2267.5 1790.0506139473962 A27 27 0 0 0 2322.5 1790.0506139473962 L2322.5 -300" transform="matrix(1,0,0,1,0,34.111366271972656)" style="fill:rgb(255, 255, 255);transform:matrix(1, 0, 0, 1, 0, 34.1114);;animation:none"></path>
<path fill="#fff" d="M2267.5 1704.5002563765154 L2267.5 1736.0506139473962 A27 27 0 0 0 2322.5 1736.0506139473962 L2322.5 1704.5002563765154 A27 27 0 0 0 2267.5 1704.5002563765154" transform="matrix(1,0,0,1,0,913.2726440429688)" opacity="1" style="fill:rgb(255, 255, 255);transform:matrix(1, 0, 0, 1, 0, 913.273);;animation:none"></path>
<path fill="#fff" d="M2321.5 -300 L2321.5 1615.6401035457206 A27 27 0 0 1 2376.5 1615.6401035457206 L2376.5 -300" transform="matrix(1,0,0,1,0,-71.26046752929688)" style="fill:rgb(255, 255, 255);transform:matrix(1, 0, 0, 1, 0, -71.2605);;animation:none"></path>
<path fill="#000" d="M2321.5 -92.43563536421757 L2321.5 -54 A27 27 0 0 0 2376.5 -54 L2376.5 -92.43563536421757 A27 27 0 0 0 2321.5 -92.43563536421757" transform="matrix(1,0,0,1,0,0)" opacity="0.994898" style="fill:rgb(0, 0, 0);transform:matrix(1, 0, 0, 1, 0, 0);opacity:0.994898;;animation:none"></path>
<path fill="#fff" d="M2375.5 -300 L2375.5 1701.3751835021642 A27 27 0 0 0 2430.5 1701.3751835021642 L2430.5 -300" transform="matrix(1,0,0,1,0,70.83956909179688)" style="fill:rgb(255, 255, 255);transform:matrix(1, 0, 0, 1, 0, 70.8396);;animation:none"></path>
<path fill="#fff" d="M2375.5 1630.8069376117203 L2375.5 1647.3751835021642 A27 27 0 0 0 2430.5 1647.3751835021642 L2430.5 1630.8069376117203 A27 27 0 0 0 2375.5 1630.8069376117203" transform="matrix(1,0,0,1,0,2261.8291015625)" opacity="0.408163" style="fill:rgb(255, 255, 255);transform:matrix(1, 0, 0, 1, 0, 2261.83);opacity:0.408163;;animation:none"></path>
<path fill="#fff" d="M2429.5 -300 L2429.5 1682.3485745111439 A27 27 0 0 1 2484.5 1682.3485745111439 L2484.5 -300" transform="matrix(1,0,0,1,0,-17.848857879638672)" style="fill:rgb(255, 255, 255);transform:matrix(1, 0, 0, 1, 0, -17.8489);;animation:none"></path>
<path fill="#000" d="M2429.5 -92.70740185624715 L2429.5 -53.99999999999999 A27 27 0 0 0 2484.5 -53.99999999999999 L2484.5 -92.70740185624715 A27 27 0 0 0 2429.5 -92.70740185624715" transform="matrix(1,0,0,1,0,0)" opacity="0.255102" style="fill:rgb(0, 0, 0);transform:matrix(1, 0, 0, 1, 0, 0);opacity:0.255102;;animation:none"></path>
<path fill="#fff" d="M2483.5 -300 L2483.5 1722.1655337825841 A27 27 0 0 0 2538.5 1722.1655337825841 L2538.5 -300" transform="matrix(1,0,0,1,0,65.81503295898438)" style="fill:rgb(255, 255, 255);transform:matrix(1, 0, 0, 1, 0, 65.815);;animation:none"></path>
<path fill="#fff" d="M2483.5 1644.4124752832004 L2483.5 1668.1655337825841 A27 27 0 0 0 2538.5 1668.1655337825841 L2538.5 1644.4124752832004 A27 27 0 0 0 2483.5 1644.4124752832004" transform="matrix(1,0,0,1,0,1119.26416015625)" opacity="0.867347" style="fill:rgb(255, 255, 255);transform:matrix(1, 0, 0, 1, 0, 1119.26);opacity:0.867347;;animation:none"></path>
<path fill="#fff" d="M2537.5 -300 L2537.5 1668.0195716745893 A27 27 0 0 1 2592.5 1668.0195716745893 L2592.5 -300" transform="matrix(1,0,0,1,0,-0.5443161725997925)" style="fill:rgb(255, 255, 255);transform:matrix(1, 0, 0, 1, 0, -0.544316);;animation:none"></path>
<path fill="#000" d="M2537.5 -88.8888538471269 L2537.5 -54 A27 27 0 0 0 2592.5 -54 L2592.5 -88.8888538471269 A27 27 0 0 0 2537.5 -88.8888538471269" transform="matrix(1,0,0,1,0,0)" opacity="0.637755" style="fill:rgb(0, 0, 0);transform:matrix(1, 0, 0, 1, 0, 0);opacity:0.637755;;animation:none"></path>
<path fill="#fff" d="M2591.5 -300 L2591.5 1839.0553412583683 A27 27 0 0 0 2646.5 1839.0553412583683 L2646.5 -300" transform="matrix(1,0,0,1,0,16.71070098876953)" style="fill:rgb(255, 255, 255);transform:matrix(1, 0, 0, 1, 0, 16.7107);;animation:none"></path>
<path fill="#fff" d="M2591.5 1772.2074716718012 L2591.5 1785.0553412583683 A27 27 0 0 0 2646.5 1785.0553412583683 L2646.5 1772.2074716718012 A27 27 0 0 0 2591.5 1772.2074716718012" transform="matrix(1,0,0,1,0,1756.376708984375)" opacity="0.612245" style="fill:rgb(255, 255, 255);transform:matrix(1, 0, 0, 1, 0, 1756.38);opacity:0.612245;;animation:none"></path>
<path fill="#fff" d="M2645.5 -300 L2645.5 1630.0876552924585 A27 27 0 0 1 2700.5 1630.0876552924585 L2700.5 -300" transform="matrix(1,0,0,1,0,-11.141525268554688)" style="fill:rgb(255, 255, 255);transform:matrix(1, 0, 0, 1, 0, -11.1415);;animation:none"></path>
<path fill="#000" d="M2645.5 -86.05965977964564 L2645.5 -54 A27 27 0 0 0 2700.5 -54 L2700.5 -86.05965977964564 A27 27 0 0 0 2645.5 -86.05965977964564" transform="matrix(1,0,0,1,0,0)" opacity="1" style="fill:rgb(0, 0, 0);transform:matrix(1, 0, 0, 1, 0, 0);;animation:none"></path>
<path fill="#fff" d="M2699.5 -300 L2699.5 1756.0248148147352 A27 27 0 0 0 2754.5 1756.0248148147352 L2754.5 -300" transform="matrix(1,0,0,1,0,56.388248443603516)" style="fill:rgb(255, 255, 255);transform:matrix(1, 0, 0, 1, 0, 56.3882);;animation:none"></path>
<path fill="#fff" d="M2699.5 1672.2110102892293 L2699.5 1702.0248148147352 A27 27 0 0 0 2754.5 1702.0248148147352 L2754.5 1672.2110102892293 A27 27 0 0 0 2699.5 1672.2110102892293" transform="matrix(1,0,0,1,0,2285.591064453125)" opacity="0.459184" style="fill:rgb(255, 255, 255);transform:matrix(1, 0, 0, 1, 0, 2285.59);opacity:0.459184;;animation:none"></path>
<path fill="#fff" d="M2753.5 -300 L2753.5 1625.3941661745714 A27 27 0 0 1 2808.5 1625.3941661745714 L2808.5 -300" transform="matrix(1,0,0,1,0,-17.674867630004883)" style="fill:rgb(255, 255, 255);transform:matrix(1, 0, 0, 1, 0, -17.6749);;animation:none"></path>
<path fill="#000" d="M2753.5 -75.63646311161708 L2753.5 -54.00000000000001 A27 27 0 0 0 2808.5 -54.00000000000001 L2808.5 -75.63646311161708 A27 27 0 0 0 2753.5 -75.63646311161708" transform="matrix(1,0,0,1,0,0)" opacity="0.765306" style="fill:rgb(0, 0, 0);transform:matrix(1, 0, 0, 1, 0, 0);opacity:0.765306;;animation:none"></path>
<path fill="#fff" d="M2807.5 -300 L2807.5 1718.6554136501104 A27 27 0 0 0 2862.5 1718.6554136501104 L2862.5 -300" transform="matrix(1,0,0,1,0,111.72699737548828)" style="fill:rgb(255, 255, 255);transform:matrix(1, 0, 0, 1, 0, 111.727);;animation:none"></path>
<path fill="#fff" d="M2807.5 1653.9959508021286 L2807.5 1664.6554136501104 A27 27 0 0 0 2862.5 1664.6554136501104 L2862.5 1653.9959508021286 A27 27 0 0 0 2807.5 1653.9959508021286" transform="matrix(1,0,0,1,0,1397.751708984375)" opacity="0.612245" style="fill:rgb(255, 255, 255);transform:matrix(1, 0, 0, 1, 0, 1397.75);opacity:0.612245;;animation:none"></path>
<path fill="#fff" d="M2861.5 -300 L2861.5 1683.8597945537492 A27 27 0 0 1 2916.5 1683.8597945537492 L2916.5 -300" transform="matrix(1,0,0,1,0,-20.070571899414062)" style="fill:rgb(255, 255, 255);transform:matrix(1, 0, 0, 1, 0, -20.0706);;animation:none"></path>
<path fill="#000" d="M2861.5 -66.8777730547285 L2861.5 -54 A27 27 0 0 0 2916.5 -54 L2916.5 -66.8777730547285 A27 27 0 0 0 2861.5 -66.8777730547285" transform="matrix(1,0,0,1,0,0)" opacity="0.688775" style="fill:rgb(0, 0, 0);transform:matrix(1, 0, 0, 1, 0, 0);opacity:0.688775;;animation:none"></path>
<path fill="#fff" d="M2915.5 -300 L2915.5 1800.37378419173 A27 27 0 0 0 2970.5 1800.37378419173 L2970.5 -300" transform="matrix(1,0,0,1,0,51.971290588378906)" style="fill:rgb(255, 255, 255);transform:matrix(1, 0, 0, 1, 0, 51.9713);;animation:none"></path>
<path fill="#fff" d="M2915.5 1730.757403971468 L2915.5 1746.37378419173 A27 27 0 0 0 2970.5 1746.37378419173 L2970.5 1730.757403971468 A27 27 0 0 0 2915.5 1730.757403971468" transform="matrix(1,0,0,1,0,2563.14404296875)" opacity="0.459184" style="fill:rgb(255, 255, 255);transform:matrix(1, 0, 0, 1, 0, 2563.14);opacity:0.459184;;animation:none"></path>
<path fill="#fff" d="M2969.5 -300 L2969.5 1672.576499517346 A27 27 0 0 1 3024.5 1672.576499517346 L3024.5 -300" transform="matrix(1,0,0,1,0,-21.969512939453125)" style="fill:rgb(255, 255, 255);transform:matrix(1, 0, 0, 1, 0, -21.9695);;animation:none"></path>
<path fill="#000" d="M2969.5 -86.60203972394197 L2969.5 -54 A27 27 0 0 0 3024.5 -54 L3024.5 -86.60203972394197 A27 27 0 0 0 2969.5 -86.60203972394197" transform="matrix(1,0,0,1,0,0)" opacity="0.0765306" style="fill:rgb(0, 0, 0);transform:matrix(1, 0, 0, 1, 0, 0);opacity:0.0765306;;animation:none"></path></g></mask></defs>


<rect mask="url(#ldbk-photon-vxsmmgjar5o-mask)" fill="url(#ldbk-photon-vxsmmgjar5o-lg)" height="2000" width="3000" y="0" x="0" style="fill:url('#ldbk-photon-vxsmmgjar5o-lg');;animation:none"></rect>
<g></g></g><!-- [ldio] generated by https://loading.io --></svg>